<?xml version="1.0" encoding="UTF-8"?>
<svg version="1.1" viewBox="0 0 1080 1920" width="1080" height="1920" xmlns="http://www.w3.org/2000/svg">
<path transform="translate(823,308)" d="m0 0h9l15 6 3 3 10 2 26 11 35 15 10 9 8 15 4 13 2 12 1 133 3 5v60l-4 2v881l-4 13-6 9-4 5-11 7-41 16-39 15h-2v9 3 47l-3 5-10 5-14 2h-16l-19-3-9-4-5-5-2-10-6 1h-12l-16-3-12-5-8-5-3-4-1-8-3-2v-12l-11-1-22-4-2 10-1 1-2 10-5 5-15 6-7 2-8 1h-13l-12-2-12-4-9-5-4-5-1-8-4-2v-4l-10 2h-20l-12-3-12-5-6-5-1-2v-8l-5-2v-11l-14-2v8l-2 1-3 9-7 4-14 3h-26l-13-3-5-3-2-3-2-9-2-6-5-4-3-10-1-2-15-3v8l-2 1-2 8-8 5-9 2-10 1h-14l-14-2-7-3-3-3-2-9-1-2v-19l-9-1-90-16-10-4-8-6-6-7-7-14-3-11-1-9v-955l3-16 6-11 9-8 8-3 143-27 362-68z" fill="#F5F6F5"/>
<path transform="translate(852,832)" d="m0 0 4 4 5 13 4 9 2 10v12l-3 13-2 28-2 26-1 21-1 72-2-4-19-1v-32l1-47 3-41-3 36-1 18v67l1 40 10-1h16v1l-6 1v8l-3 5-1 267v147l-2 15 1 1 4-8h2v-2l23-9 11-4 12-5 16-6 13-5 8-3 2-2-2 9-5 10-6 7-11 7-41 16-39 15h-2v9 3 47l-3 5-10 5-14 2h-16l-19-3-9-4-5-5-2-10-6 1h-12l-16-3-12-5-8-5-3-4-1-8-3-2v-12l-11-1-22-4-2 10-1 1-2 10-5 5-15 6-7 2-8 1h-13l-12-2-12-4-9-5-4-5-1-8-4-2v-4l-10 2h-20l-12-3-12-5-6-5-1-2v-8l-5-2v-11l-14-2v8l-2 1-3 9-7 4-14 3h-26l-13-3-5-3-2-3-2-9-2-6-5-4-3-10-1-2-15-3v8l-2 1-2 8-8 5-9 2-10 1h-14l-14-2-7-3-3-3-2-9-1-2v-19l-9-1-90-16-6-2 3-1 208 37 95 17 87 15 68 12 44 8 40 7h19l11-4 6-4 3-1v-2h2l2-4 7-11 5-5 15-8 18-8 2-4 1-8 1-404-7 4-13 1h-14l-1-2h2l-1-4 8-6 8-4h2v-123l3-49 2-21h-12l2-2 8-2-1-7v-17h1l1 15h2v-17l4-10 3-4-4 2-6 12 1-8 4-8 6-5h3l-2-9z" fill="#BDC0BA"/>
<path transform="translate(214,1464)" d="m0 0 13 2 69 12 224 40 87 15 68 12 44 8 40 7 3 1 1 2 1 30 8 4 1 5 4 4 3 2-7-1-8-4-4-6-1-8-6 1h-12l-16-3-12-5-8-5-3-4-1-8-3-2v-12l-11-1-22-4-2 10-1 1-2 10-5 5-15 6-7 2-8 1h-13l-12-2-12-4-9-5-4-5-1-8-4-2v-4l-10 2h-20l-12-3-12-5-6-5-1-2v-8l-5-2v-11l-14-2v8l-2 1-3 9-7 4-14 3h-26l-13-3-5-3-2-3-2-9-2-6-5-4-3-10-1-2-15-3v8l-2 1-2 8-8 5-9 2-10 1h-14l-14-2-7-3-3-3-2-9-1-2v-19l-9-1-90-16-6-2z" fill="#BEC1BB"/>
<path transform="translate(214,1464)" d="m0 0 13 2 69 12 168 30 29 5v2h-2v8l-2 1-3 9-7 4-14 3h-26l-13-3-5-3-2-3-2-9-2-6-5-4-3-10-1-2-15-3v8l-2 1-2 8-8 5-9 2-10 1h-14l-14-2-7-3-3-3-2-9-1-2v-19l-9-1-90-16-6-2z" fill="#BEC1BB"/>
<path transform="translate(852,832)" d="m0 0 4 4 5 13 4 9 2 10v12l-3 13-2 28-2 26-1 21-1 72-2-4-19-1v-32l1-47 3-41-3 36-1 18v107h-1l-1-37v-76l3-49 2-21h-12l2-2 8-2-1-7v-17h1l1 15h2v-17l4-10 3-4-4 2-6 12 1-8 4-8 6-5h3l-2-9z" fill="#BFC2BC"/>
<path transform="translate(492,679)" d="m0 0h11l2 3v35l-4 11-4 5-6 4-3 1-41 3-8-1-6-4-5-8-1-3v-23l4-9 5-6 6-3 17-2z" fill="#A5A3A0"/>
<path transform="translate(762,1561)" d="m0 0h15v2l20 3 14-1 27-3v37l-3 5-10 5-14 2h-16l-15-2v-2l-5-1-3-4-1-5-8-4z" fill="#BEC1BB"/>
<path transform="translate(669,1545)" d="m0 0 10 1 35 6 45 8 3 1 1 2 1 30 8 4 1 5 4 4 3 2-7-1-8-4-4-6-1-8-6 1h-12l-16-3-12-5-8-5-3-4-1-8-3-2v-12l-11-1-19-4z" fill="#BEC1BB"/>
<path transform="translate(486,691)" d="m0 0h10v25l-3 6-4 4-5 1-28 2h-15l-5-6-1-3v-14l3-7 5-4z" fill="#F6F7F6"/>
<path transform="translate(214,1464)" d="m0 0 13 2 69 12 50 9 44 8v1l-12-1-12-2-1 18 5 1 1 4-7 2v2l-4 2h-14l-14-2-7-3-3-3-2-9-1-2v-19l-9-1-90-16-6-2z" fill="#BDC0BA"/>
<path transform="translate(851,322)" d="m0 0h2l1 15v487l-2 1-1-2z" fill="#BFC2BC"/>
<path transform="translate(493,1514)" d="m0 0 10 1 69 12 2 2-9-1-16-3v11l-13 1 16 1 1 1v7l-7 2v1l6 1v2h-17l-12-4-9-5-4-5v-8l-5-2v-11l-12-2z" fill="#BEC1BB"/>
<path transform="translate(744,1560)" d="m0 0h8l10 2 1 1 1 30 8 4 1 5 4 4 3 2-7-1-8-4-4-6-1-8-6 1h-12l-16-3-12-5-8-5-3-4v-8l14 5 1 9 16 3 10 1-1-8-16-2v-1l16-1v-9z" fill="#A3A09D"/>
<path transform="translate(496,752)" d="m0 0h5l2 6-3 5-8 7-11 5-14 3h-11l-13-3-9-5-5-6 1-6 2-2 4 1 9 6 7 2 10 1 14-2 12-5z" fill="#A6A3A0"/>
<path transform="translate(549,1525)" d="m0 0 16 2 9 2v27l-3-1v-4l-10 2h-20v-1h11v-2h-8v-3l9-1-1-7-16-1-4-2h17z" fill="#A3A09D"/>
<path transform="translate(632,1540)" d="m0 0 11 1 26 4-3 1-2 10-1 1-2 10-5 5-15 6-7 1v-2l-3-1h3v-2l9-2-2-7-1-2 17-4v-2l-6-2-8-4v-2l-6-2-5-4z" fill="#A3A09D"/>
<path transform="translate(465,1510)" d="m0 0 28 4-2 1v8l-2 1-3 9-7 4-14 3h-26v-1l25-1v-2l6-2 1-4-12 1 2-2h4z" fill="#A3A09D"/>
<path transform="translate(365,1492)" d="m0 0 25 4 1 1v8l-2 1-2 8-8 5-9 2h-9l3-1v-2l7-2-1-4h-10v-1h5z" fill="#A3A09D"/>
<path transform="translate(830,1550)" d="m0 0 7 1 1 1v10l-10 2-25 3-12-1-12-2-2-2 8-2h12v-2l-3-1 7-3 11 1 5-1 1-2z" fill="#A4A19E"/>
<path transform="translate(407,1500)" d="m0 0 11 1 9 2v25l2 1-1 6 5 2-4 1-8-4-2-3-2-9-2-6-5-4z" fill="#A3A09D"/>
<path transform="translate(842,866)" d="m0 0h2l-1 40h-2v9l-3 36-1 18v107h-1l-1-37v-76l3-49 2-21h-12l2-2 10-3 1 1z" fill="#C7C9C4"/>
<path transform="translate(499,655)" d="m0 0h5v11l-5 2-18 1-2-2v-7l2-3z" fill="#A6A4A1"/>
<path transform="translate(319,1484)" d="m0 0 8 1 1 1v24h2l1 8 5 1-4 1-7-3-3-3-2-9-1-2z" fill="#A3A09D"/>
<path transform="translate(844,1075)" d="m0 0h20v1l-6 1v8l-10 1h-12v-10z" fill="#A4A19E"/>
<path transform="translate(510,1530)" d="m0 0 10 4 4 1 1 8 12 4 2 2-10 1-12-5-6-5-1-2z" fill="#A3A09D"/>
<path transform="translate(945,529)" d="m0 0 3 2v57l-1 2h-2z" fill="#BFC2BC"/>
<path transform="translate(852,832)" d="m0 0 4 4 5 13 2 3-1 4-4-5-4-3h-7l-5 6-3 9h-1l1-8 4-8 6-5h3l-2-9z" fill="#BABCB6"/>
<path transform="translate(576,1557)" d="m0 0 12 5v7l-1 3 11 3-1 2-9-3-8-4-4-5z" fill="#A3A09D"/>
<path transform="translate(837,865)" d="m0 0h1l1 15 3-1v12l-4-4-1-5z" fill="#BBBDB8"/>
<path transform="translate(821,1555)" d="m0 0 4 1-2 2-8 2h-8l-4-2z" fill="#BFC2BC"/>
<path transform="translate(844,1075)" d="m0 0h20v1l-6 1v8h-1l-1-7h-9l-8 1-1-2z" fill="#BFC2BC"/>
<path transform="translate(726,1585)" d="m0 0 18 1 1 3h-11l-8-2z" fill="#B9BBB6"/>
<path transform="translate(847,1044)" d="m0 0h4l2 9v6h-3z" fill="#B8B9B4"/>
<path transform="translate(843,863)" d="m0 0h9l11 1v2h-14l-6-1z" fill="#A3A09D"/>
<path transform="translate(699,1551)" d="m0 0 4 1-1 12-3-1z" fill="#A3A09D"/>
<path transform="translate(505,1517)" d="m0 0h3v12l-3-1z" fill="#A3A09D"/>
<path transform="translate(844,1075)" d="m0 0 5 1-2 2-8 1-1-2z" fill="#C1C4BE"/>
</svg>
