<?xml version="1.0" encoding="UTF-8"?>
<svg version="1.1" viewBox="0 0 1228 2048" width="1500" height="2500" xmlns="http://www.w3.org/2000/svg">
<path transform="translate(416,1094)" d="m0 0h32l508 6 25 1 12 12 6 7 4 1 1 293v579l-4 4-4 2-23-3-20-3h-17l-20 6h-3v26l-13 3-9 1h-42l-28-4-310-49-252-40-6-2-4-11-2-20-1-21-1-663 1-51 4-24 5-15 6-11 9-10 9-6 10-4 5-1 23-1zm566 891-1 2 4-1z" fill="#F8F8F8"/>
<path transform="translate(996,1417)" d="m0 0h6l1 15 1 3v558l-4 4-4 2-23-3-20-3h-17l-20 6h-3v26l-13 3-9 1h-42v-1l41-1 18-3 2-1v-5h1l1-18h-2v-23h3v-2l-15 3h-15v-1l24-3 3-1-1-2h3v-41l-1 35-2 1-1-29 1-20 3-2v-19l1-23h-2v37l-2 1v-48l3-2v-42l-1 38h-2v-49l3-2 1-42h-2v35l-2 1v-46l3-3v-40l-1 35-2 3v-46l6-2-14 2-15 1h-27v-1l36-2 14-2 1-2h2v-39l-1 14v16l-2 1v-45l3-3v-40l-1 19v14l-2 3v-48l3-2v-36l-1 23v8l-2 2v-50l3-1v-34l-1 7v17l-2 3-1-10 1-38 3-1v-39l-1 32-2 3v-44l10-2zm-14 568-1 2 4-1z" fill="#B8B8B8"/>
<path transform="translate(977,1123)" d="m0 0h24l1 154h1v136l-3 3-68 9-27 3-22 1h-25v-1l42-2 9-1 3-1v-37h-2v8h-1l-1-7v-5l1-1 1-13 1-1v-47l-1 6-2-3v-6l1-2v-12l1-2h2l-1-47-1 18-2-4v-18l1-5v-7l2-3 1-47h-2v10h-1l-1-14 1-4 1-10 1-1v-36l-1 8h-1l-1-12 2-4 4-1z" fill="#B8B8B8"/>
<path transform="translate(996,1417)" d="m0 0h6l1 15 1 3v246l-2 2-26 5-66 14-24 2h-27v-1l36-2 14-2 1-2h2v-39l-1 14v16l-2 1v-45l3-3v-40l-1 19v14l-2 3v-48l3-2v-36l-1 23v8l-2 2v-50l3-1v-34l-1 7v17l-2 3-1-10 1-38 3-1v-39l-1 32-2 3v-44l10-2z" fill="#B8B8B8"/>
<path transform="translate(252,1170)" d="m0 0h1l1 719-1 42-2-1-3-13-2-35-1-663 1-48z" fill="#B7B7B7"/>
<path transform="translate(679,1224)" d="m0 0 4 1 9-1 10 3 8 6 6 9 2 9h2l2 11h5v-7h1v16l-4 13-6 10-8 8-13 5-4 2h-7l-10-3-10-6-8-9-6-11v-5l2 3 4 8 10 11 4-1 1-7-1-2-2 2-1-4 1-3-3-1-6-13-1-6v-13l4-10 6-9z" fill="#9E9D9F"/>
<path transform="translate(998,1947)" d="m0 0h2v2l-5 2-3 18-6 17h-4l3 2-3 8h5v1l-14-1-20-3h-17l-20 6h-3v26l-13 3-9 1h-42v-1l41-1 18-3 2-1v-5h1l1-18h-2v-23h3v-2l-2-1 8-3 73-22z" fill="#9D9C9E"/>
<path transform="translate(680,1209)" d="m0 0h14l9 4 6 4 5 5 6 7 5 11 3 11-1 11-3 1-2-1-2-7v-4h-2l-4-11-7-9-10-5-9-1-8 1h-3l-7 5-6 10-3 8v13l2 9 5 10 2 1v6l2-2 2 3-1 7-2 2-4-1-7-7-6-9-2-4-2-3-2-12v-10l3-14 7-14 4-5 10-7z" fill="#B8B8B9"/>
<path transform="translate(252,1170)" d="m0 0h1v220l-7-2-1-169 1-48z" fill="#B6B6B6"/>
<path transform="translate(246,1637)" d="m0 0h1l1 71v-18l4 1 1 2 1 196-1 42-2-1-3-13-2-35z" fill="#9E9D9E"/>
<path transform="translate(246,1390)" d="m0 0h1l1 244 5 2v57l-3-1v-2h-2l1 21-1 126h-1l-1-200z" fill="#ADADAE"/>
<path transform="translate(1e3 1947)" d="m0 0h1v46l-4 4-4 2-9-1v-2h-5l1-8 1-2h2l1-7 4-10 3-18 3-2z" fill="#B5B5B5"/>
<path transform="translate(663,1226)" d="m0 0 3 3-3 9-5 29-4 4-3-4v-20l5-13z" fill="#F9F9F9"/>
<path transform="translate(997,1949)" d="m0 0 3 1-4 1v46h-9l-5-1 1-8 1-2h2l1-7 4-10 3-18z" fill="#C5C5C5"/>
<path transform="translate(710,1286)" d="m0 0 2 3 1 7 2 1-7 6-11 4-4 2h-7v-1l5-1 1-5 3-8 12-5z" fill="#B8B8B8"/>
<path transform="translate(709,1222)" d="m0 0 7 6 6 9 3 7 1 5v13l-2 1-2-1-6-21-7-11z" fill="#F9F9F9"/>
<path transform="translate(910,1977)" d="m0 0h3v48l-13 3-9 1h-42v-1l41-1 18-3 2-1v-5h1l1-18h-2z" fill="#B2B2B3"/>
<path transform="translate(993,1794)" d="m0 0 3 1-1 39-1 4-3-1v-40z" fill="#9D9C9E"/>
<path transform="translate(961,1721)" d="m0 0 3 1-1 38-1 5h-3v-41z" fill="#9D9C9E"/>
<path transform="translate(993,1688)" d="m0 0 3 1-1 39-1 3h-3v-40z" fill="#9D9C9E"/>
<path transform="translate(993,1527)" d="m0 0 3 1-1 38-1 5h-3v-41z" fill="#9D9C9E"/>
<path transform="translate(993,1741)" d="m0 0 3 1-1 38-2 5-2-1v-40z" fill="#9D9C9E"/>
<path transform="translate(993,1474)" d="m0 0 3 1-1 38-2 5-2-1v-40z" fill="#9D9C9E"/>
<path transform="translate(993,1580)" d="m0 0 3 1-1 38-2 5h-2v-41z" fill="#9D9C9E"/>
<path transform="translate(961,1559)" d="m0 0 3 1-1 35-1 8h-3v-42z" fill="#9D9C9E"/>
<path transform="translate(992,1901)" d="m0 0h4l-1 38-2 5-2-1v-39z" fill="#9D9C9E"/>
<path transform="translate(992,1634)" d="m0 0 4 1-1 37-1 5-3-1v-40z" fill="#9D9C9E"/>
<path transform="translate(961,1829)" d="m0 0 3 1-1 35-1 7-3 1v-41z" fill="#9D9C9E"/>
<path transform="translate(993,1847)" d="m0 0 3 1-1 38-2 5-2-1v-40z" fill="#9D9C9E"/>
<path transform="translate(960,1776)" d="m0 0 4 1-1 35-1 7h-3v-41z" fill="#9D9C9E"/>
<path transform="translate(954,1533)" d="m0 0h3l-1 44-3 1-1-2v-39z" fill="#9D9C9E"/>
<path transform="translate(974,1557)" d="m0 0h2l1 4-1 30-1 9-3 1v-42z" fill="#9D9C9E"/>
<path transform="translate(960,1506)" d="m0 0 4 1-1 31-1 11-3 1v-42z" fill="#9D9C9E"/>
<path transform="translate(973,1826)" d="m0 0 4 1-1 33-1 9h-3v-41z" fill="#9D9C9E"/>
<path transform="translate(960,1452)" d="m0 0 4 1-1 30-1 12-3 1v-42z" fill="#9D9C9E"/>
<path transform="translate(974,1772)" d="m0 0h2l1 4-1 29-1 10-3 1v-41z" fill="#9D9C9E"/>
<path transform="translate(973,1504)" d="m0 0 4 1-1 31-1 11h-3v-41z" fill="#9D9C9E"/>
<path transform="translate(973,1719)" d="m0 0 4 1-1 31-1 11h-3v-41z" fill="#9D9C9E"/>
<path transform="translate(1e3 1413)" d="m0 0 2 1v21l-2-4v-14l-75 10-16 1 4-2 79-10 8-1z" fill="#F9F9F9"/>
<path transform="translate(986,1876)" d="m0 0h3l1 3-1 29-1 10-3 1v-41z" fill="#9D9C9E"/>
<path transform="translate(993,1421)" d="m0 0 3 1-1 28-1 14-3-1v-39z" fill="#9D9C9E"/>
<path transform="translate(987,1608)" d="m0 0 2 1v29l-1 11-1 3h-2v-42z" fill="#9D9C9E"/>
<path transform="translate(987,1822)" d="m0 0h2l1 3-1 26-1 12-1 2h-2v-41z" fill="#9D9C9E"/>
<path transform="translate(986,1716)" d="m0 0 4 1-1 27-1 12-1 3h-2v-42z" fill="#9D9C9E"/>
<path transform="translate(954,1858)" d="m0 0h3v25l-1 17-1 2h-2v-43z" fill="#9D9C9E"/>
<path transform="translate(987,1769)" d="m0 0h2l1 3-2 38-1 3h-2v-42z" fill="#9D9C9E"/>
<path transform="translate(973,1450)" d="m0 0h3l1 4-2 39-3 1v-42z" fill="#9D9C9E"/>
<path transform="translate(954,1750)" d="m0 0 3 1v22l-1 18-1 3h-2v-43z" fill="#9D9C9E"/>
<path transform="translate(953,1248)" d="m0 0h3l-1 48h-3v-47z" fill="#9D9C9E"/>
<path transform="translate(966,1247)" d="m0 0h3l-1 47-3 1v-47z" fill="#9D9C9E"/>
<path transform="translate(955,1696)" d="m0 0 2 1v20l-1 20-1 3h-2v-42z" fill="#9D9C9E"/>
<path transform="translate(953,1313)" d="m0 0h3l-1 45-1 3h-2v-47z" fill="#9D9C9E"/>
<path transform="translate(986,1502)" d="m0 0h3v21l-1 21-3 1v-42z" fill="#9D9C9E"/>
<path transform="translate(954,1426)" d="m0 0 3 1v16l-1 24-1 3h-2v-43z" fill="#9D9C9E"/>
<path transform="translate(967,1311)" d="m0 0 2 1-1 44-2 4-1-1v-46z" fill="#9D9C9E"/>
<path transform="translate(953,1183)" d="m0 0h3l-1 44-1 3h-2v-46z" fill="#9D9C9E"/>
<path transform="translate(954,1803)" d="m0 0h3l-1 42-2 4h-1v-45z" fill="#9D9C9E"/>
<path transform="translate(967,1694)" d="m0 0h3v19l-1 21-1 3h-2v-42z" fill="#9D9C9E"/>
<path transform="translate(986,1555)" d="m0 0h3v17l-1 24-1 2h-2v-42z" fill="#9D9C9E"/>
<path transform="translate(954,1480)" d="m0 0h3v15l-1 26-1 3h-2v-43z" fill="#9D9C9E"/>
<path transform="translate(979,1246)" d="m0 0h3l-1 43-1 5h-2v-47z" fill="#9D9C9E"/>
<path transform="translate(966,1182)" d="m0 0h3l-1 44-2 4-1-1v-45z" fill="#9D9C9E"/>
<path transform="translate(979,1181)" d="m0 0 3 1-1 43-1 4h-2v-47z" fill="#9D9C9E"/>
<path transform="translate(967,1854)" d="m0 0h3v14l-1 27-1 3h-2v-43z" fill="#9D9C9E"/>
<path transform="translate(955,1587)" d="m0 0 2 1v14l-1 26-1 4h-2v-43z" fill="#9D9C9E"/>
<path transform="translate(980,1310)" d="m0 0 2 1-1 40-1 8h-2v-47z" fill="#9D9C9E"/>
<path transform="translate(968,1800)" d="m0 0 2 1-1 40-1 4h-2v-43z" fill="#9D9C9E"/>
<path transform="translate(967,1908)" d="m0 0h3l-1 40-2 4h-1v-43z" fill="#9D9C9E"/>
<path transform="translate(967,1747)" d="m0 0 3 1-1 40-1 3h-2v-43z" fill="#9D9C9E"/>
<path transform="translate(967,1531)" d="m0 0 3 1-1 40-1 4h-2v-44z" fill="#9D9C9E"/>
<path transform="translate(980,1797)" d="m0 0h3l-1 40-2 5h-1v-44z" fill="#9D9C9E"/>
<path transform="translate(967,1639)" d="m0 0h3l-1 40-2 4h-1v-43z" fill="#9D9C9E"/>
<path transform="translate(967,1585)" d="m0 0h3l-1 41-1 3h-2v-43z" fill="#9D9C9E"/>
<path transform="translate(967,1478)" d="m0 0 3 1-1 39-1 4h-2v-43z" fill="#9D9C9E"/>
<path transform="translate(987,1448)" d="m0 0 3 3-1 8-1 30-1 3h-2v-42z" fill="#9D9C9E"/>
<path transform="translate(980,1691)" d="m0 0h3l-1 39-1 4h-2v-42z" fill="#9D9C9E"/>
<path transform="translate(980,1636)" d="m0 0 3 1-1 39-2 4h-1l-1-38z" fill="#9D9C9E"/>
<path transform="translate(980,1744)" d="m0 0 3 1-1 38-1 5h-2v-43z" fill="#9D9C9E"/>
<path transform="translate(980,1529)" d="m0 0 3 1-1 39-2 5h-1v-44z" fill="#9D9C9E"/>
<path transform="translate(968,1424)" d="m0 0 2 1-1 39-1 4h-2v-42z" fill="#9D9C9E"/>
<path transform="translate(980,1904)" d="m0 0 3 1-1 37-2 6h-1v-43z" fill="#9D9C9E"/>
<path transform="translate(980,1476)" d="m0 0 3 1-1 38-1 5h-2v-43z" fill="#9D9C9E"/>
<path transform="translate(980,1423)" d="m0 0 3 1-1 34-1 8h-2l-1-23v-15z" fill="#9D9C9E"/>
<path transform="translate(959,1154)" d="m0 0 4 1-2 45h-2l-1-28v-16z" fill="#9D9C9E"/>
<path transform="translate(953,1378)" d="m0 0h3l-1 38h-3v-37z" fill="#9D9C9E"/>
<path transform="translate(985,1153)" d="m0 0h3l-1 41-1 5h-1l-1-13v-31z" fill="#9D9C9E"/>
<path transform="translate(961,1883)" d="m0 0 3 1-1 30-3 1-1-2v-27z" fill="#9D9C9E"/>
<path transform="translate(986,1215)" d="m0 0 2 1-1 39-1 6h-1l-1-12v-32z" fill="#9D9C9E"/>
<path transform="translate(961,1613)" d="m0 0h2l1 4-1 25-1 3-3-1v-28z" fill="#9D9C9E"/>
<path transform="translate(519,1257)" d="m0 0 12 1 1 1-1 7h-13l-1-1v-7z" fill="#F9F9F9"/>
<path transform="translate(406,1253)" d="m0 0h12l1 1v6l-2 2h-9l-3-2v-6z" fill="#F9F9F9"/>
<path transform="translate(979,1127)" d="m0 0h3l-1 37-3 1v-37z" fill="#9D9C9E"/>
<path transform="translate(966,1127)" d="m0 0h3l-1 35-1 3h-2v-36z" fill="#9D9C9E"/>
<path transform="translate(953,1128)" d="m0 0h3l-1 33-2 4-1-1v-35z" fill="#9D9C9E"/>
<path transform="translate(959,1280)" d="m0 0 4 1-1 11-1 34h-2l-1-43z" fill="#9D9C9E"/>
<path transform="translate(985,1278)" d="m0 0h3l-1 38-1 7h-1l-1-20v-23z" fill="#9D9C9E"/>
<path transform="translate(959,1217)" d="m0 0 4 1-1 9-1 36h-2l-1-44z" fill="#9D9C9E"/>
<path transform="translate(974,1891)" d="m0 0 2 3v20l-1 8-3 1v-29z" fill="#9D9C9E"/>
<path transform="translate(959,1343)" d="m0 0 4 1-1 9-1 36h-2l-1-43z" fill="#9D9C9E"/>
<path transform="translate(973,1623)" d="m0 0h2l1 4v18l-1 9h-3v-29z" fill="#9D9C9E"/>
<path transform="translate(979,1375)" d="m0 0h3l-1 28-1 10h-2v-37z" fill="#9D9C9E"/>
<path transform="translate(949,1159)" d="m0 0h1l1 25v16l-1 3h-3l1-41z" fill="#F9F9F9"/>
<path transform="translate(377,1250)" d="m0 0h15v2h-15l1 4 12 1 2 2v6l-1 1h-15v-2l14-1v-4h-13l-2-5z" fill="#A1A0A2"/>
<path transform="translate(973,1153)" d="m0 0h2l1 3-1 7-1 31-1 5h-1l-1-43z" fill="#9D9C9E"/>
<path transform="translate(949,1349)" d="m0 0h1l1 14v27l-2 3-3-1 1-3 1-38z" fill="#F9F9F9"/>
<path transform="translate(985,1340)" d="m0 0h3l-1 32-1 14h-1l-1-25v-19z" fill="#9D9C9E"/>
<path transform="translate(493,1254)" d="m0 0 16 1 1 2v6l-1 1h-7v3l8 2v2l-9-2-1-5 1-2h7v-5h-13l-1 13h-1z" fill="#A7A6A8"/>
<path transform="translate(992,1181)" d="m0 0 3 1-1 12-1 30-2 1v-43z" fill="#9D9C9E"/>
<path transform="translate(972,1279)" d="m0 0h3l-1 39-1 7h-1l-1-43z" fill="#9D9C9E"/>
<path transform="translate(992,1245)" d="m0 0 3 1-1 10-1 32-2 1v-43z" fill="#9D9C9E"/>
<path transform="translate(949,1222)" d="m0 0h1l1 12v30l-1 2h-3l1-40z" fill="#F9F9F9"/>
<path transform="translate(992,1126)" d="m0 0 3 1-2 36h-2v-36z" fill="#9D9C9E"/>
<path transform="translate(943,1318)" d="m0 0h1v46h-4l1-3 1-41z" fill="#F9F9F9"/>
<path transform="translate(949,1286)" d="m0 0h1l1 41-3 3-1-4 1-39z" fill="#F9F9F9"/>
<path transform="translate(972,1216)" d="m0 0h3l1 3-1 4-1 33-1 6h-1l-1-43z" fill="#9D9C9E"/>
<path transform="translate(931,1254)" d="m0 0h1l1 43-1 3h-3l1-42z" fill="#F9F9F9"/>
<path transform="translate(943,1253)" d="m0 0h1v45l-3 2v-4l1-41z" fill="#F9F9F9"/>
<path transform="translate(943,1188)" d="m0 0h1v45h-4l1-3 1-41z" fill="#F9F9F9"/>
<path transform="translate(405,1251)" d="m0 0h14l2 1v8l-3 4h-9l-5-2-1-2v-6zm1 2-1 1v6l3 2h9l2-2v-6l-1-1z" fill="#A6A5A6"/>
<path transform="translate(931,1319)" d="m0 0h1l1 34-1 13h-3l1-43z" fill="#F9F9F9"/>
<path transform="translate(926,1350)" d="m0 0h1v44h-4l1-2 1-41z" fill="#F9F9F9"/>
<path transform="translate(926,1287)" d="m0 0h1v44l-3 1 1-44z" fill="#F9F9F9"/>
<path transform="translate(937,1286)" d="m0 0h1v44l-3 1 1-44z" fill="#F9F9F9"/>
<path transform="translate(926,1223)" d="m0 0h1v44l-3 1 1-44z" fill="#F9F9F9"/>
<path transform="translate(931,1188)" d="m0 0h1l1 44-2 3h-2l1-42z" fill="#F9F9F9"/>
<path transform="translate(937,1349)" d="m0 0h1v44h-4l1-2 1-40z" fill="#F9F9F9"/>
<path transform="translate(937,1159)" d="m0 0h1v44l-3 1 1-43z" fill="#F9F9F9"/>
<path transform="translate(926,1159)" d="m0 0h1v44l-3 1 1-44z" fill="#F9F9F9"/>
<path transform="translate(944,1810)" d="m0 0h1v42l-3 2v-4l1-39z" fill="#F9F9F9"/>
<path transform="translate(938,1513)" d="m0 0h1v42l-4 1 1-4 1-38z" fill="#F9F9F9"/>
<path transform="translate(992,1309)" d="m0 0 3 1-1 9-1 29-2 1v-39z" fill="#9D9C9E"/>
<path transform="translate(937,1222)" d="m0 0h1v44l-3 1 1-43z" fill="#F9F9F9"/>
<path transform="translate(938,1785)" d="m0 0h1v42h-4l1-3 1-38z" fill="#F9F9F9"/>
<path transform="translate(944,1539)" d="m0 0h1v42l-4 1 1-3 1-39z" fill="#F9F9F9"/>
<path transform="translate(518,1255)" d="m0 0 15 1v10l-2 2h-13l-3-4 1-7zm1 2-2 1v7l1 1h13l1-7-1-1z" fill="#A1A0A2"/>
<path transform="translate(937,1894)" d="m0 0h2v41l-4 1 1-3z" fill="#F9F9F9"/>
<path transform="translate(944,1864)" d="m0 0h1v42l-4 1 1-3 1-38z" fill="#F9F9F9"/>
<path transform="translate(980,1583)" d="m0 0h3l-1 27h-3l-1-22z" fill="#9D9C9E"/>
<path transform="translate(973,1341)" d="m0 0 3 3-1 3-1 29-1 11h-1l-1-43z" fill="#9D9C9E"/>
<path transform="translate(944,1919)" d="m0 0h1v41l-4 1 1-3 1-38z" fill="#F9F9F9"/>
<path transform="translate(932,1813)" d="m0 0h1v43l-3 1 1-41z" fill="#F9F9F9"/>
<path transform="translate(938,1731)" d="m0 0h1v41l-4 1 1-3 1-38z" fill="#F9F9F9"/>
<path transform="translate(944,1703)" d="m0 0h1v41l-4 1 1-3 1-38z" fill="#F9F9F9"/>
<path transform="translate(950,1620)" d="m0 0h1v41h-4l1-3 1-37z" fill="#F9F9F9"/>
<path transform="translate(943,1594)" d="m0 0h2v40l-3 2v-4z" fill="#F9F9F9"/>
<path transform="translate(937,1568)" d="m0 0h2v40l-1 2-3-1 1-3z" fill="#F9F9F9"/>
<path transform="translate(926,1515)" d="m0 0 2 1v40l-1 2-3-1 1-3z" fill="#F9F9F9"/>
<path transform="translate(944,1485)" d="m0 0h1v41l-3 2v-4l1-37z" fill="#F9F9F9"/>
<path transform="translate(943,1432)" d="m0 0h2v40l-3 2v-4z" fill="#F9F9F9"/>
<path transform="translate(448,1253)" d="m0 0 4 1 10 11 1-11 2-1v16l-4-1-10-11-2-1v13h-1z" fill="#A5A5A6"/>
<path transform="translate(980,1851)" d="m0 0h3l-1 27-3-1v-25z" fill="#9D9C9E"/>
<path transform="translate(937,1840)" d="m0 0h2v40l-3 2-1-2 1-2z" fill="#F9F9F9"/>
<path transform="translate(926,1788)" d="m0 0 2 1v40l-3 2-1-2 1-2z" fill="#F9F9F9"/>
<path transform="translate(944,1757)" d="m0 0h1v40l-1 2h-3l1-3 1-38z" fill="#F9F9F9"/>
<path transform="translate(926,1733)" d="m0 0 2 2v39l-1 2h-2z" fill="#F9F9F9"/>
<path transform="translate(944,1647)" d="m0 0h1v41l-3 2-1-2 1-2 1-37z" fill="#F9F9F9"/>
<path transform="translate(932,1541)" d="m0 0h1v42l-3 1 1-41z" fill="#F9F9F9"/>
<path transform="translate(938,1459)" d="m0 0h1v41l-4 1 1-3 1-38z" fill="#F9F9F9"/>
<path transform="translate(926,1897)" d="m0 0 2 3v38l-4 1 1-4z" fill="#F9F9F9"/>
<path transform="translate(950,1836)" d="m0 0h1v41l-3 2v-4l1-35z" fill="#F9F9F9"/>
<path transform="translate(950,1783)" d="m0 0h1v41h-4l1-3 1-35z" fill="#F9F9F9"/>
<path transform="translate(937,1623)" d="m0 0h2v40l-4 1 1-3z" fill="#F9F9F9"/>
<path transform="translate(932,1596)" d="m0 0h1v41l-3 1 1-41z" fill="#F9F9F9"/>
<path transform="translate(950,1566)" d="m0 0h1v40l-3 2-1-2 1-2 1-37z" fill="#F9F9F9"/>
<path transform="translate(950,1458)" d="m0 0h1v41l-3 1-1-2 1-2 1-36z" fill="#F9F9F9"/>
<path transform="translate(932,1922)" d="m0 0h1v42l-3 1 1-40z" fill="#F9F9F9"/>
<path transform="translate(926,1842)" d="m0 0 2 3v38l-3 2-1-2 1-2z" fill="#F9F9F9"/>
<path transform="translate(932,1760)" d="m0 0h1v41l-3 1 1-40z" fill="#F9F9F9"/>
<path transform="translate(950,1729)" d="m0 0h1v40l-3 2-1-2 1-2 1-36z" fill="#F9F9F9"/>
<path transform="translate(950,1512)" d="m0 0h1v41h-4l1-2 1-36z" fill="#F9F9F9"/>
<path transform="translate(932,1488)" d="m0 0h1v41l-3 1 1-40z" fill="#F9F9F9"/>
<path transform="translate(932,1434)" d="m0 0h1v41h-3l1-40z" fill="#F9F9F9"/>
<path transform="translate(932,1869)" d="m0 0h1v41h-3l1-39z" fill="#F9F9F9"/>
<path transform="translate(932,1706)" d="m0 0h1v41l-3 1 1-40z" fill="#F9F9F9"/>
<path transform="translate(932,1650)" d="m0 0h1v41l-3 1 1-40z" fill="#F9F9F9"/>
<path transform="translate(926,1569)" d="m0 0 2 4v37l-1 2-3-1 1-3z" fill="#F9F9F9"/>
<path transform="translate(926,1461)" d="m0 0 2 3v38h-4l1-3z" fill="#F9F9F9"/>
<path transform="translate(427,1252)" d="m0 0h15v2l-14 1-1 7 1 3 13 1v3l-14-1-2-3v-10z" fill="#A4A4A5"/>
<path transform="translate(950,1890)" d="m0 0h1v41l-1 2-3-1 1-3 1-14v-22z" fill="#F9F9F9"/>
<path transform="translate(909,1926)" d="m0 0h2v39l-2 1-1-29z" fill="#B7B7B7"/>
<path transform="translate(926,1624)" d="m0 0 2 3v38l-3 2-1-2 1-2z" fill="#F9F9F9"/>
<path transform="translate(472,1254)" d="m0 0h15v2l-14 1-1 7 1 3 14 1v2h-14l-3-4v-9z" fill="#A2A1A3"/>
<path transform="translate(931,1385)" d="m0 0h1l1 32-2 5-2-1 1-34z" fill="#F9F9F9"/>
<path transform="translate(943,1384)" d="m0 0h1v35l-4 1 1-4 1-31z" fill="#F9F9F9"/>
<path transform="translate(943,1132)" d="m0 0h1v36h-4l1-3 1-31z" fill="#F9F9F9"/>
<path transform="translate(954,1929)" d="m0 0h2v23l-1 3h-2v-25z" fill="#9D9C9E"/>
<path transform="translate(954,1659)" d="m0 0h2v23l-1 3h-2v-25z" fill="#9D9C9E"/>
<path transform="translate(920,1255)" d="m0 0h1l1 8v37l-4 1 1-6z" fill="#F9F9F9"/>
<path transform="translate(931,1133)" d="m0 0h1l1 34-1 2h-3l1-33z" fill="#F9F9F9"/>
<path transform="translate(967,1376)" d="m0 0 2 1-2 26-2-4v-21z" fill="#9D9C9E"/>
<path transform="translate(920,1321)" d="m0 0h1l1 24v21h-4l1-7z" fill="#F9F9F9"/>
<path transform="translate(719,1251)" d="m0 0 2 4 1 7h4v7l-1 3-5-1z" fill="#B7B7B7"/>
<path transform="translate(992,1374)" d="m0 0h3l-1 8-1 21-2 1v-29z" fill="#9D9C9E"/>
<path transform="translate(911,1709)" d="m0 0 2 2v32l-2 1-1-9z" fill="#F9F9F9"/>
<path transform="translate(920,1387)" d="m0 0 2 3v31l-1 2-3-1 1-5z" fill="#F9F9F9"/>
<path transform="translate(920,1190)" d="m0 0h1l1 36v8l-1 2-3-1 1-5z" fill="#F9F9F9"/>
<path transform="translate(961,1695)" d="m0 0 3 1-1 12-2 4h-2v-15z" fill="#9D9C9E"/>
<path transform="translate(960,1667)" d="m0 0 4 1-2 15-3 1v-15z" fill="#9D9C9E"/>
<path transform="translate(961,1425)" d="m0 0 3 1-2 16h-3v-15z" fill="#9D9C9E"/>
<path transform="translate(915,1224)" d="m0 0h1l1 13v31l-3 1z" fill="#F9F9F9"/>
<path transform="translate(974,1692)" d="m0 0h2l1 4-2 12-3 1v-15z" fill="#9D9C9E"/>
<path transform="translate(915,1352)" d="m0 0h1l1 12v31l-3 2-1-2 1-3z" fill="#F9F9F9"/>
<path transform="translate(920,1133)" d="m0 0 2 2v33l-1 2-3-1 1-7z" fill="#F9F9F9"/>
<path transform="translate(960,1937)" d="m0 0 4 1-2 15h-3v-14z" fill="#9D9C9E"/>
<path transform="translate(911,1544)" d="m0 0h1l1 7v26l-2 2-1-5z" fill="#F9F9F9"/>
<path transform="translate(973,1933)" d="m0 0 4 1-2 15-3 1v-15z" fill="#9E9D9F"/>
<path transform="translate(911,1653)" d="m0 0h1l1 10v23l-2 1-1-21z" fill="#F9F9F9"/>
<path transform="translate(987,1689)" d="m0 0 2 1v11l-2 5h-2v-15z" fill="#9D9C9E"/>
<path transform="translate(974,1664)" d="m0 0h2l1 3-2 13-3 1v-15z" fill="#9D9C9E"/>
<path transform="translate(973,1424)" d="m0 0 4 1-2 13-1 2h-2v-15z" fill="#9D9C9E"/>
<path transform="translate(987,1929)" d="m0 0h2v11l-2 6h-2v-15z" fill="#9D9C9E"/>
<path transform="translate(954,1912)" d="m0 0h3v11l-1 5-3-1v-14z" fill="#9D9C9E"/>
<path transform="translate(986,1662)" d="m0 0h3v10l-2 6h-2v-15z" fill="#9D9C9E"/>
<path transform="translate(915,1161)" d="m0 0h1l1 8v33l-1 3-3-1 1-4z" fill="#F9F9F9"/>
<path transform="translate(955,1641)" d="m0 0 2 1v10l-1 5h-3v-14z" fill="#9D9C9E"/>
<path transform="translate(915,1288)" d="m0 0h1l1 28v15l-1 2-3-1 1-4z" fill="#F9F9F9"/>
<path transform="translate(685,1210)" d="m0 0 10 1 4 2v1h-23l1-2z" fill="#F9F9F9"/>
<path transform="translate(986,1422)" d="m0 0h3v8l-2 8h-2v-15z" fill="#9D9C9E"/>
<path transform="translate(916,1899)" d="m0 0h1v43h-3l1-5z" fill="#F9F9F9"/>
<path transform="translate(921,1925)" d="m0 0h1v42h-3l1-5z" fill="#F9F9F9"/>
<path transform="translate(921,1707)" d="m0 0h1v43h-3l1-4z" fill="#F9F9F9"/>
<path transform="translate(916,1626)" d="m0 0h1v42h-3l1-5z" fill="#F9F9F9"/>
<path transform="translate(916,1462)" d="m0 0h1v42h-3l1-4z" fill="#F9F9F9"/>
<path transform="translate(921,1871)" d="m0 0h1v42h-3l1-4z" fill="#F9F9F9"/>
<path transform="translate(916,1735)" d="m0 0h1v43h-3l1-3z" fill="#F9F9F9"/>
<path transform="translate(921,1652)" d="m0 0h1v42h-3l1-4z" fill="#F9F9F9"/>
<path transform="translate(921,1598)" d="m0 0h1v42l-3-1 1-4z" fill="#F9F9F9"/>
<path transform="translate(921,1489)" d="m0 0h1v42h-3l1-4z" fill="#F9F9F9"/>
<path transform="translate(916,1845)" d="m0 0h1v42h-3l1-3z" fill="#F9F9F9"/>
<path transform="translate(916,1790)" d="m0 0h1v43l-3-1 1-2z" fill="#F9F9F9"/>
<path transform="translate(916,1571)" d="m0 0h1v42h-3l1-3z" fill="#F9F9F9"/>
<path transform="translate(921,1435)" d="m0 0h1v41h-3l1-4z" fill="#F9F9F9"/>
<path transform="translate(509,1259)" d="m0 0 1 4-1 1h-7v3l8 2v2l-9-2-1-5 1-2 7-1z" fill="#A3A3A4"/>
<path transform="translate(973,1611)" d="m0 0 4 1-1 10h-4v-9z" fill="#9D9C9E"/>
<path transform="translate(518,1255)" d="m0 0 13 1v2h-14v5l-2 1 1-7z" fill="#ABABAC"/>
<path transform="translate(980,1879)" d="m0 0 2 1v10l-2 5h-1v-15z" fill="#9D9C9E"/>
<path transform="translate(973,1880)" d="m0 0 4 1-1 9h-4v-8z" fill="#9D9C9E"/>
<path transform="translate(909,1506)" d="m0 0h2v17l-2 3-1-10z" fill="#B7B7B7"/>
<path transform="translate(538,1256)" d="m0 0 4 2 3 2 6-1 4-3-1 4-5 3-6-1-5-4z" fill="#A4A4A5"/>
<path transform="translate(980,1611)" d="m0 0 2 2v9l-2 5h-1v-15z" fill="#9D9C9E"/>
<path transform="translate(464,1253)" d="m0 0h1v16l-4-1-1-3h2l1-11z" fill="#A8A7A8"/>
<path transform="translate(960,1405)" d="m0 0 3 2-2 9-3-1v-7z" fill="#9D9C9E"/>
<path transform="translate(960,1127)" d="m0 0h2l1 4-2 7-3-1v-7z" fill="#9D9C9E"/>
<path transform="translate(516,1272)" d="m0 0 5 2h8l4-1-4 4h-9l-4-3z" fill="#A2A1A3"/>
<path transform="translate(926,1678)" d="m0 0h2v14l-4 1 1-3z" fill="#F9F9F9"/>
<path transform="translate(937,1676)" d="m0 0h2v14h-4l1-3z" fill="#F9F9F9"/>
<path transform="translate(926,1951)" d="m0 0h2v13l-1 2-3-1 1-3z" fill="#F9F9F9"/>
<path transform="translate(937,1948)" d="m0 0h2v14h-4l1-2z" fill="#F9F9F9"/>
<path transform="translate(926,1434)" d="m0 0h2v13l-1 2-3-1 1-3z" fill="#F9F9F9"/>
<path transform="translate(938,1432)" d="m0 0h1v14l-4 1 1-3 1-11z" fill="#F9F9F9"/>
<path transform="translate(986,1126)" d="m0 0 2 1-1 10-3-1v-7z" fill="#9D9C9E"/>
<path transform="translate(950,1944)" d="m0 0h1v14l-4 1 2-13z" fill="#F9F9F9"/>
<path transform="translate(937,1705)" d="m0 0h2v13l-4 1 1-3z" fill="#F9F9F9"/>
<path transform="translate(950,1431)" d="m0 0h1v14h-4l1-2 1-11z" fill="#F9F9F9"/>
<path transform="translate(972,1127)" d="m0 0h3v7l-1 3h-2l-1-7z" fill="#9D9C9E"/>
<path transform="translate(926,1707)" d="m0 0 2 1v12l-3 2-1-2 1-2z" fill="#F9F9F9"/>
<path transform="translate(950,1674)" d="m0 0h1v13l-3 2v-4l1-9z" fill="#F9F9F9"/>
<path transform="translate(986,1402)" d="m0 0 2 1-1 9h-3v-7z" fill="#9D9C9E"/>
<path transform="translate(403,1254)" d="m0 0 2 1 1 5 8 2v2l-9-1-2-3z" fill="#ADADAE"/>
<path transform="translate(950,1702)" d="m0 0h1v14l-3 1-1-2z" fill="#F9F9F9"/>
<path transform="translate(960,1647)" d="m0 0h2v10h-3v-8z" fill="#9E9D9F"/>
<path transform="translate(960,1917)" d="m0 0h2v9l-3 1v-8z" fill="#9D9D9E"/>
</svg>
