<?xml version="1.0" encoding="UTF-8"?>
<svg version="1.1" viewBox="0 0 1080 1920" width="1080" height="1920" xmlns="http://www.w3.org/2000/svg">
<path transform="translate(712,51)" d="m0 0h40l32 3h46l23 2 26 5 21 7 17 8 15 10 11 9 13 13 11 15 9 16 8 17 8 25 5 24 3 23 10 12 9 17 5 15 4 24 1 13v546l-2 23-4 19-1 3v19l1 39v74l-2 57-3 46-5 49-6 42-7 38-10 40-12 36-10 24-10 20-11 17-10 13-12 13-12 10-11 7-16 8-16 5-12 2h-25l-17-4-12-5-12-7-11-9-7-7-11-15-8-14-8-17-10-30-7-30-6-40-3-33-2-43v-61l2-52 1-5-25 2-26 1h-29l-27-1-35-3-32-5-2-1 1 94v39l-1 85-2 66-3 56-4 52-6 54-7 46-7 37-11 44-12 36-11 28-12 24-14 23-13 17-9 10-18 18-15 11-15 9-15 7-18 6-14 3-8 1h-24l-25-5-20-8-16-9-16-12-10-9-16-16-11-14-12-17-14-24-13-26-11-27-12-36-8-29-8-36-7-43-4-37-2-28-1-29v-33l2-45 4-42 6-42 9-45 10-39 12-38 12-32 13-30 18-36 16-27 18-27 12-16 8-10 11-13 11-12 23-23 8-7 13-11 19-14 8-6 6-7 4-3h2l1-4 4-15 10-16 7-10 16-17 11-9 1-1v-23l-1-58-1-106v-71l1-101 2-99 3-100 3-26 5-21 6-16 8-16 8-13 10-13 13-14 11-9 13-10 18-11 19-10 27-11 31-10 33-8 38-7 39-5zm197 88 1 7 3 13 11 13 9 9 1-3-7-16-10-15-7-8zm-518 796-7 1-9 6-11 3-13 10-11 9-10 9-13 12-14 15-12 14-13 17-14 20-15 25-14 26-13 28-13 33-12 36-10 37-8 37-7 43-4 38-2 29-1 47 1 35 3 40 5 39 7 38 6 26 10 34 10 27 11 25 11 21 9 14 12 16 9 10 12 12 13 9 16 8 11 3 8 1h11l16-3 16-6 14-8 11-9 11-10 9-11 9-12 9-15 12-23 13-33 8-26 10-40 7-37 6-40 5-44 4-47 3-50 2-53 1-42v-213l-5-3-20-10-16-11-12-11-9-9-11-16-8-16-6-16-4-17-3-20zm577 29-16 5-23 7-1 1-1 27-2 13-5 5-6 1-35 1-9 9-16 12-19 11-20 9-24 8-17 5-1 6-2 44v90l3 45 4 32 6 31 7 25 8 19 7 13 7 9 7 7 8 5 12 3 16-1 13-4 10-6 11-9 9-10 12-18 9-17 10-25 9-28 8-32 8-43 6-44 4-43 3-48 1-27v-88z" fill="#DADADA"/>
<path transform="translate(667,678)" d="m0 0 6 1 14 6 12 9 10 9 6 10 4 9 9 15 8 19 5 16 6 5 3 18v31l-3 20-6 21-6 14h-4-2l-2 7v6l-7 12-10 11-4 1-12 10-1 4-13 8-14 6-16 4-7 1h-16l-17-3-16-6 3-1 17 4 10 1h9l-19-2-17-5-17-9-13-10-12-12-10-14-11-21-2-7 8-3-9 1-19 6-14 7-10 8-10 9-16 12-21 14-20 11-7 3-7 1 5 35v7l2-3 8 19 7 13 9 12 9 10 10 9v2l-6-2-8-7-8-8-11-15-5-6-8-18-6-21-3-18v-7l-11-1-7 1-9 6-11 3-13 10-11 9-10 9-13 12-12 13-13 15-13 17-14 20-15 25-14 26-13 28-13 33-12 36-10 37-8 37-7 43-4 38-2 29-1 47 1 35 3 40 5 39 7 38 6 26 10 34 10 27 11 25 11 21 9 14 12 16 9 10 11 11 13 9 13 7v2l16 4 7 1h17l16-3 15-5 19-10 12-9 12-11 10-11 10-15 8-16 8-25 13-47 7-28 8-40 7-45 5-41 4-43 4-63 2-51 1-37 1-221 6 1 24 7 17 4 1 94v39l-1 85-2 66-3 56-4 52-6 54-7 46-7 37-11 44-12 36-11 28-12 24-14 23-13 17-9 10-18 18-15 11-15 9-15 7-18 6-14 3-8 1h-24l-25-5-20-8-16-9-16-12-10-9-16-16-11-14-12-17-14-24-13-26-11-27-12-36-8-29-8-36-7-43-4-37-2-28-1-29v-33l2-45 4-42 6-42 9-45 10-39 12-38 12-32 13-30 18-36 16-27 18-27 12-16 8-10 11-13 11-12 23-23 8-7 13-11 19-14 8-6 6-7 4-3h2l1-4 4-15 4-6 9-7 14-4v-1l-10 1 5-5 22-18 10-10 5-4 2 1-8 7-1 3 19-10 14-10 19-14 10-7 12-7 24-9 30-7 25-3 2-1h-18l-9 1 1-6 8-16 7-12 11-13 10-10 13-9 11-4 54-3h22l3 1z" fill="#1A1A1A"/>
<path transform="translate(805,54)" d="m0 0h25l23 2 26 5 21 7 17 8 15 10 11 9 13 13 11 15 9 16 8 17 8 25 5 24 3 23 10 12 9 17 5 15 4 24 1 13v546l-2 23-4 19-1 3v19l1 39v74l-2 57-3 46-5 49-6 42-7 38-10 40-12 36-10 24-10 20-11 17-10 13-12 13-12 10-11 7-16 8-16 5-12 2h-25l-17-4-12-5-12-7-5-5 5 2 2 1-16-15-8-10-11-17-9-19-8-22-7-27-6-32-4-34-2-27-1-22v-84l2-44 1-2 49-8-2 50v90l3 45 4 32 6 31 7 25 8 19 7 13 7 9 9 8 8 4 9 2 16-1 13-4 10-6 11-9 11-13 10-16 8-15 10-25 9-28 8-32 8-43 6-44 4-43 3-48 1-27v-87l-16 5-23 7-1 27-2 13-5 5-7 2h-34l6-8 7-9 8-14 6-14 4-13 3-16 1-12v-18l-3-125-1-58-1-90v-183l1-88 2-103 2-79v-18l-1-16 5 5 9 10 5 5-3-9-7-14-8-11-5-6-2-1-7-16-7-12-12-14-13-11-18-11-21-9-23-7-12-3v-1z" fill="#181818"/>
<path transform="translate(667,678)" d="m0 0 6 1 14 6 12 9 10 9 6 10 4 9 9 15 8 19 5 16 6 5 3 18v31l-3 20-6 21-6 14h-4-2l-2 7v6l-7 12-10 11-4 1-12 10-1 4-13 8-14 6-16 4-7 1h-16l-17-3-16-6 3-1 17 4 10 1h9l-19-2-17-5-17-9-13-10-12-12-10-14-11-21-2-7 5-2h17l8 7 5 4 6 8 7 6v2l5 2 12 7 16 4-5-3-7-1-4-1-6-3v-2l-6-2-10-9-5-6 15 6 11 2v-3l3 2h11l11-4v-3h-17l-1-3h-2v-2h-3l2-10 1-4h3l-3-7-5-5-12-7-1-4 5-2h8l8 1-26-8-5-1-12-1v2l-2 1v4l5 2 12 5 11 6 7 2-3 1-10-3-12-5-17-5-3-3-1-4 3-7 5-3 8-4 7 2 6 5 15 6 8 2 6 3v2l10 1 3 4-1 1 8 2h20l2-4 1-1-2-3 6-4v-3l-5-1 4-2h2l-1-7 2-2-5 1 3-6-2-5-1-4h2l-3-3h-2v-2l-3-1v-3l-2-3-10-2-4-1 7-2-7-5v-2l-5 1-7-1 1-2h2v-2l-20-1-3-1 1-4 4-3 13-1v1l-9 3-1 2 14 2 9 3-12-6 4-4 5-2-1-3-4-1-4-2-23-2-20-1-8-1-19 1-13 2 1-6 8-16 7-12 11-13 10-10 13-9 11-4 54-3h22l3 1z" fill="#181818"/>
<path transform="translate(962,183)" d="m0 0 3 3 5 15 4 18 1 8 1 5 1 14 1 15-1 8h2v17l1 8v9l1 6v15l1 11v13l1 3v16l1 13v15l1 4v22l1 5v23l1 7v23l1 12v20l1 15v20l1 8v26l1 7v33l1 7v24l1 22v30l1 6v39l1 18v28l1 18v28l1 9v31l1 19v20l1 11v16l1 9v101l-1 12v15l-1 13-1 21-1 9-1 17-1 13-1 5-1 15-2 14-2 16-2 13-2 11-2 13-2 10-1 8-3 9-2 12-3 9-1 6-5 17-3 11h-2l1 3-3 7-4 11-5 12-6 11-5 9-4 7-2 4h-2l-2 5-2 3h-2l-2 5h-2l-2 4-3 1v3l-5 3-5 6h-3v2h-2v2l-8 5-15 8-8 3-14 3-11 1h-18l-9-1-6-2-5-3-2-1-11-5-4-2-1-1v2l5 5 13 10v2l5 2 1 4-6-2-14-8-5-5 5 2 2 1-16-15-8-10-11-17-9-19-8-22-7-27-6-32-4-34-2-27-1-22v-84l2-44 1-2 2 1-1 14-2 56v35l1 35 2 31 4 35 4 25 7 30 2 4h2l2 3-1-9-5-20-3-19-3-22-2-18-2-27-1-26v-80l1-23 2-20 2-2 9 1v3 1l1 4v13l-1 3v5l1 4-1 4v30l-2 2h2v26h-1v7h1v20l1 11v21l1 3v12l-1 3h2v10l1 2v6l-1 2h2v8l1 1 1 11 1 8 1 4 2 13 2 7 2 10 2 4 1 7 4 10 2 6v4h2l3 8 5 9v3h2l7 10 1 3 5 5 7 5v2h3l1 2 11 5 11 3h23l15-4 14-7 5-3 5-5 7-6 3-4h2l1-4 10-13 5-7 3-7h2l1-5 7-13 5-13 4-10 5-14 5-16 3-12 4-15 3-14 4-20 3-18 3-21 3-22 3-28 2-26 2-30 2-29 2-19 1-3 2-20v-9l1-9 1-18 1-16v-47l1-5h-2v-30l-1-54-1-31v-28l1-2h-2v-49h-1v-31l-1-18v-3l2-10h-2v-46l-1-11v-33l-1-5v-37l-1-19v-10h-1v-38l-1-9-1-13v-34l-1-2v-16l-1-1v-24l-1-21-2-56-2-30-2-16-1-18-1-8-1-11-2-10v-1l-1-3z" fill="#474546"/>
<path transform="translate(918,78)" d="m0 0 5 2 13 9 12 11 8 8 11 15 9 16 8 17 8 25 5 24 3 23 10 12 9 17 5 15 4 24 1 13v546h-1l-1-500-1-12-3-4-1-6 2-5v-4l-5-1 1-8-9-3v-2h-2v5h-3l1 15 2 1-2 1v3h-2l-1-21v-4l-3-42-3-39-3-5h-2l-1-7-1-8 1 14 1 10 1 16 1 13 2 30 2 35 1 29 1 21 2 47 1 40 1 28 1 38 1 34 1 48 1 42 1 49 1 54 1 58 1 56 1 50 1 29v92l-1 27-1 22-2 30-3 34-4 33-5 35-4 23-5 23-4 17-5 18-7 23-4 10-7 18-9 17-4 7-4 1 1-7 1-3h2l1-5 5-12 8-22 3-10 3-8 3-13 3-9 2-11 4-16 2-12 2-10 3-17 3-18 2-19 2-12 1-16 1-6 2-25 1-17 1-14 1-16 1-28 1-34v-50l-1-36-1-37v-18l-1-31v-25l-1-34v-21l-1-39v-17l-1-31v-23l-1-26v-18l-1-24v-19l-1-27v-11l-1-22v-16l-1-25-1-32-1-25-1-28-1-25-1-23-1-21-1-18-2-31-1-18-2-21-2-20-1-7-1-4-3-15-4-15-5-12-4-10-9-19-3-7 3-1 5 6 6 4v-2h-2l-5-9-6-8-11-12-8-7-13-9z" fill="#454344"/>
<path transform="translate(564,750)" d="m0 0 25 2 19 1 9 2 8 4-2 4-7 3 3 2 10 5-3 1-8-3-12-2-2-1 1-3 4-2-10 2-3 5h11v2l-7 1h-10l-3-1 1-4 4-3-9 4-8 7-4 4h-2l-2 8-11 8-14 5-15 9-13 11-4 4h-2l-1 3h-2v2h2v2l-5 2-3 6-5 5-8 7h-2v-2l-8 1-2 5-3 5-1 5-3 1-3 7h-3l-6 7-3 3-5 6-5 4h-2l-1 3-4 2-4-14v-5h2l-1-3h2l1-5 2-3h2l-1-3v-2-15h2l-1-6h3l-2-1v-2l2-2 4-5 4-3 3-1v-2l6-2 12-7 2-2-2-4 4-5 4-7v-5l-11-1-3-2v2l2 1-9 1-1 2-10 4-2 2-5 4-3 1-3 3-11 8-12 8-6 3-6 4-16 8 4-7 12-13 2-4 10-9 2 1-8 7-1 3 19-10 14-10 19-14 10-7 12-7 24-9 30-7 25-3 2-1-14-1v-1z" fill="#333233"/>
<path transform="translate(366,900)" d="m0 0 5 1 4 5 3 10-5 4-6 4h-2l-1 5-2-1-2 3-4 4-3 1-2 2-4 2v2l-5 2-3 5-5 2-3 5-4 2-1 3-8 7-5 6-4 2-5 7-5 4-7 10-4 5-2 2-3 4-1 2h-2l-5 10-3 2-2 5h-2v3l-4 4-1 3h-2v3h-2l-2 7-2 1-5 9-3 7h-2l-2 7-5 8-1 3h-2l-3 10-2 4h-2l-1 4-4 9-4 10-3 7-8 20-4 11-13 39-7 28-4 14-2 12-6 27-2 15-2 11-3 24-2 19-2 23-1 20-1 27v37l1 25 2 25 1 14 2 16 3 22 2 14 2 12 2 10 5 22 1 6 2 9 2 7 3 12 2 7 1 4-4 1-4-10-2-9-2-6-3-10-5-20-2-10-2-13-2-8-1-6-5-40-2-20-2-23-1-26v-70l2-31 2-21 2-18 3-22 3-16 1-9 3-14 4-21 8-32 5-17 3-11 7-20 4-14h2l-1-3h2l1-8h2l1-7 8-19 1-4h2l2-9 4-9h2l2-9 2-2 2-6 1-2h2l1-4 4-9 3-6 2-5 3-3 3-8 2-1 2-4 3-7 2-1 1-3h2l1-5h2l3-9 3-3 3-6 3-3 2-4 3-3 2-3h2l1-5 4-5h2l1-4 6-5v-2h2l2-5 2-1 5-5 8-9 5-5 4-1 2-4h2v-2h3v-2h2v-2h3v-2h2v-2l3-1 1-2 3-1 3-3 11-7z" fill="#444344"/>
<path transform="translate(712,51)" d="m0 0h40l24 2 7 2 23 5 5 2-3 1-35-4-13-1h-56l-34 3-41 6-39 8-22 6-32 11-25 11-20 11-15 10-11 9-10 9-8 8-13 17-10 18-6 14-6 20-3 15-2 23-3 94-2 111v258l1 58v29l-4 2-1-27-1-49-1-3-1-106v-71l1-101 2-99 3-100 3-26 5-21 6-16 8-16 8-13 10-13 13-14 11-9 13-10 18-11 19-10 27-11 31-10 33-8 38-7 39-5z" fill="#504F50"/>
<path transform="translate(131,1312)" d="m0 0 1 3-2 6h3l-1 9 2-2v7l-2 4 3 1v6h-2l2 4v44l1 21v48l1 17 1 20 1 10-1 11h2l-1 10-1 2h2l1 4-2 1 1 4v7l-6 7-1-4 5-6v-2l-2 4h-2l-1 3v13l-1 2h2v8l1 4-1 4 2 1-1 8-7 3-2-5-3-13-1-7-2-7-2-15-1-7-2-11-1-14-2-14-2-30 1-5h2l-1-6-3-1v-11h1l1 5 2-4 1-7h-2l1-15 1-33 2-30 2-18 2-12 1-8 2-2v-3-3l4-1 1-1-2-1 3-2 2 1z" fill="#484647"/>
<path transform="translate(962,183)" d="m0 0 3 3 5 15 4 18 1 8 1 5 1 14 1 15-1 8h2v17l1 8v9l1 6v15l1 11v13l1 3v16l1 13v15l1 4v22l1 5v23l1 7v23l1 12v20l1 15v20l1 8v26l1 7v33l1 7v24l1 22v30l1 6v39l1 18v28l1 18v28l1 9v31l1 19v20l1 11v16l1 9v101l-1 12v15l-1 13-1 21-1 9-1 17-1 13-1 5-1 15-2 14-2 16-2 13-2 11-2 13-2 10-1 8-3 9h-1l1-10 8-45 6-48 3-31 3-52 1-34v-93l-2-64-3-122v-13l-2-68-1-38-1-17-1 4v31l1 60 1 50 1 81 1 42v73l-2 36-1 11-2-1v-9l1-9 1-18 1-16v-47l1-5h-2v-30l-1-54-1-31v-28l1-2h-2v-49h-1v-31l-1-18v-3l2-10h-2v-46l-1-11v-33l-1-5v-37l-1-19v-10h-1v-38l-1-9-1-13v-34l-1-2v-16l-1-1v-24l-1-21-2-56-2-30-2-16-1-18-1-8-1-11-2-10v-1l-1-3z" fill="#343334"/>
<path transform="translate(499,1068)" d="m0 0 4 1h-2l1 30v137l-1 60-2 61-3 53-3 42-5 50-6 45-5 31-4 20-1 9-2 10-3 16-3 15-2 9v18l-6 16-6 13-10 18h-2v3h-2l-2 5-4 7-2 1-3 5-2 4-3 3-2 3h-2l-2 5h-2v3l-4 2 4 1 1-1-3-1 6-1 1-1 11-6 6-3 3-3h2v-2l6-1v3l-2 5-4 1-1 4-6 4-5 6-4 1-1 3-3 1-5 5-11 6h-5l-1 3-6 2-6 3-11 4-10 2-7 1-2-1-1 2h-23l-7-1-7-2-1-2-3 1v-2l-3 1-5-2v-2l-6-1-6-3v-2l-5-2-3-1v-3l-4-1 1-3 5 2 10 5v2l16 4 7 1h17l16-3 15-5 19-10 12-9 12-11 10-11 10-15 8-16 8-25 13-47 7-28 8-40 7-45 5-41 4-43 4-63 2-51 1-37z" fill="#474647"/>
<path transform="translate(667,687)" d="m0 0 5 1 7 4-2 4 1 11 3 6 5 9 3 9 4 5 6 7v2l4 2 3 2v2l5 2v-2l-4-2-8-8-4-7-5-8-4-11-5-9-1-7 2-3 5 2 10 8-2 1 1 7 5 16 5 11 8 9 8 6 6 5-9-9-5-4-6-8-5-12-4-13 1-3 5 2 10 13 9 16 8 19 5 19 3 24v15l-2 18-4 17-6 17-9 17-8 11-9 11-8 8-12 9-12 7-2 1 14-7 13-10 8-8 3 1-9 9-11 9-9 6-9 4 15-5 1-3 7-4h2l1 3-10 7-15 7-14 4-12 2h-16l-17-3-16-6 3-1 17 4 10 1h9l-6-1v-1l5-1 4-1 6-2 3-4 1-15 4-4 9-4h2l-2 13-3 12 6-1 3-12 2-14 4-5 8-7 6-4h8l9 5 4 1 2-1-11-6-3-2-6-1 3-5 3-2 12 9 5 3 9-14 7-15 5-15 4-20 1-9v-25l-3-19-2-6-17-12-5-4-9-6-10-7v-2l-6-2-5-10-4-11-7-9-2-13-1-7z" fill="#343334"/>
<path transform="translate(506,1070)" d="m0 0 12 3 7 2-3 1v146l-1 9v25h-2l1 6v7 3 8h-2l1 3v12l-1 2-1 14-1 4v5l-1 1v12l-1 4v10l-1 5v7l-1 2-1 5-1 3-5-2v-38l1-46z" fill="#474546"/>
<path transform="translate(559,848)" d="m0 0h8l20 4 6 2v2h3v2h2v7l-1 1v5l4 1v2h2l1 2h15l2 1 1 4-12 4h-11l-3-2 1 1-2 2-12-3-9-4h-2l10 10 7 4 6 3v2l4 1h3l7 2 4 2 9 1v1h-11l-16-5-15-9-5-6-6-5-5-7-8-6-2-2-14-1-4-1-19 5-16 7-12 9-12 11-18 13-18 12-20 11-7 3-7 1 5 35v7l2-3 8 19 7 13 9 12 9 10 10 9v2l-6-2-8-7-8-8-11-15-5-6-8-18-6-21-3-18v-7l-11-1-7 1h-3l4-7 3-3-1-2h2l1-2 5-4h1l-1 7-3 6v1h6l2-5 4-3 11-1 4-1 2 1-2 4 3-1 3-4 2 1 5-4 7-4 1-2 4-2 2-3 4-2 4-5 3-3h2v-2l4-1v-2l5-2 9-12 8-10 5-6 16-6 13-5 18-3z" fill="#484647"/>
<path transform="translate(614,772)" d="m0 0h5v2l-2 1 11 1v2l5 2 4 4-3 1 9 3 3 5-1 1 6 2 1 4h-2l2 4 2 6-2 4h2l1-3 1 3v7h-1v-6l-1 2v6l-2 1 2 2v4l-6 3 4 2-2 3-2-1v2l2 1-4 2h-22l-6-2h-3l1-2v-2-2l-5-2-16-8-10-6-3-5 1-5h25v-3l-24-1-3-2 1-20 4-5 21-4z" fill="#333233"/>
<path transform="translate(618,979)" d="m0 0h34l8 16 9 17-1 6-13 30-1 1h-14l-19-1-17-34 3-9z" fill="#191919"/>
<path transform="translate(557,811)" d="m0 0 6 2-5 4-6 3-3 8 3 5 23 7 11 5h1l-17-9-8-3-4-4 1-3h2v-2h14l25 8 5 2v1l-17-1-5 1 2 4 11 6 5 4 3 5v4h-3v3l2 1-2 1-3 9-2-1v-5l1-1 1-7h-2v-2h-3v-2l-9-2-17-3-22 1-21 3-11 3-17 7-6 1-1 3-4 4-8 10-9 12h-3l1-5 6-9 2-1-1-4-1-5-1-2 4-1 1 4 1-6-2-1 4-1v5l4-9v-3l8-7 9-8h2v-2l8-4 20 4 15 2 20 1-21-3-6-2-3-2v-2l-11-1-6-2-2-2 13-8 6-3 4-1 7-2 9-1z" fill="#333233"/>
<path transform="translate(969,964)" d="m0 0h1l1 51 2 2v58l-2 39-3 35-4 38-5 34-5 27-7 31-7 25-9 25-10 23-11 19-14 18-5 5h-2v2l-11 8-12 6-4 1h-11l-5-1-13-1-12-5-9-7-11-11-3-5v-3l-2-1-6-11-3-11-1-3 2-2 4 10 6 12 2 6h2l1-2 9 14 8 8 8 5 12 3 16-1 13-4 10-6 11-9 11-13 10-16 8-15 10-25 9-28 8-32 8-43 6-44 4-43 3-48 1-27z" fill="#484647"/>
<path transform="translate(400,284)" d="m0 0h1l1 33h2v-15h1v19l-2 77-1 64v258l1 58v29l-4 2-1-27-1-49-1-3-1-106v-71l1-101 2-99z" fill="#605E5F"/>
<path transform="translate(564,750)" d="m0 0 25 2 19 1 6 3-1 2-3 1-12 1-21 4-7 4-13 2-21 2-21 4-13 3-18 4-9 4-13 5-11 6-1 3-3 1-2 2-5 4-3 1-3 3-11 8-12 8-6 3-6 4-16 8 4-7 12-13 2-4 10-9 2 1-8 7-1 3 19-10 14-10 19-14 10-7 12-7 24-9 30-7 25-3 2-1-14-1v-1z" fill="#484647"/>
<path transform="translate(592,764)" d="m0 0 2 1-6 4-1 3h13l14-1v2l-25 4-5 3-1 2-1 20 2 1 22 1 2 1v3h-25l1 8 9 6 16 8 6 4v1h-5l-4-2-3-3-5-2-9-2-13-6-6-5-8-2-5-1-6 2-9 1-10 4-12 6-2 3 6 2 11 2v2l9 3 11 2 15 2 2 2-11-1-18-1-19-3-9-2-5-1-6 3h-2v2l-6 4-11 11-9-2v-2l5-2 3 1v2l9-7 5-5 4-7 5-1v-2h-2v-2l8-7 10-9 6-5 12-6 12-5 7-4 5-4h2l1-6 4-4h2l2-4 7-6z" fill="#191919"/>
<path transform="translate(667,687)" d="m0 0 5 1 7 4-2 4 1 11 3 6 5 9 3 9 4 5 6 7v2l4 2 3 2v2l5 2v-2l-4-2-8-8-4-7-5-8-4-11-5-9-1-7 2-3 5 2 10 8-2 1 1 7 5 16 5 11 8 9 8 6 6 5-9-9-5-4-6-8-5-12-4-13 1-3 5 2 10 13 9 16 8 19 5 19 3 24v15l-2 18-4 17-6 17-9 17-6 9-2-1 9-15 7-15 5-15 4-20 1-9v-25l-3-19-2-6-17-12-5-4-9-6-10-7v-2l-6-2-5-10-4-11-7-9-2-13-1-7z" fill="#343334"/>
<path transform="translate(131,1312)" d="m0 0 1 3-2 6h3l-1 9 2-2v7l-2 4 3 1v6h-2l2 4v44l1 21v48l1 17 1 20 1 10-1 11h2l-1 10-1 2h2l1 4-2 1 1 4v7l-6 7-1-4 5-6v-2l-2 4h-2l-1 3v13l-1 2h2v8l1 4-1 4 2 1-1 8-7 3-2-5-3-13-1-7-2-7-2-15-1-7-2-11-1-14-2-14-2-30 1-5h2l-1-6-3-1v-11h1l1 5 2-4 1-6h1l1 35 3 39 3 21 4 19 3 2v-26l1-4h2l1-4 2-5v-28l-2-44-1-77-4-38-2-2-4 9-2 9-2-3 2-12 1-8 2-2v-3-3l4-1 1-1-2-1 3-2 2 1z" fill="#333233"/>
<path transform="translate(1e3 266)" d="m0 0 5 2 2 1v2l5 2 9 6 2 3 2 14 1 13v546h-1l-1-500-1-12-3-4-1-6 2-5v-4l-5-1 1-8-9-3v-2h-2v5h-3l1 15 2 1-2 1v3h-2l-1-21v-4l-2-26z" fill="#3E3D3E"/>
<path transform="translate(530,1291)" d="m0 0 2 1 1 9v24l-1 21v14l-1 19-1 25-2 35-2 28-2 21-1 13-2 16-2 14-2 15-2 10-2 13-2 9-2 11-2 7-2 10-1 4h-2v8l-1 3h-2l1 3h-2l1 3h-2l1 4-4 7-1 4-1 3h-2l-1 3h-2l-1 2 2 1-3 1-1-3 6-20 2-9 2-6 6-24 3-13 2-10 3-13 2-13 2-10 2-13 3-21 3-24 1-14 2-18 1-17 2-22v-10l1-13 1-19v-10l1-6v-20l1-15z" fill="#414041"/>
<path transform="translate(464,827)" d="m0 0h8l7 3 1 3-4 11-6 9-7 14-9 12h-2l-2 4-7 7-8 6-3-8 1-6 6-10 3-7 1-10v-10l3-7 8-7 6-3z" fill="#484647"/>
<path transform="translate(725,1086)" d="m0 0 2 1-1 14-2 56v35l1 35 2 31 4 35 4 25 7 30 2 4h2l2 3v-9l2 3 5 17 10 25 8 15 9 12 6 7-1 4 5 5 12 10 2 1v2l5 2 1 4-6-2-14-8-5-5 5 2 2 1-16-15-8-10-11-17-9-19-8-22-7-27-6-32-4-34-2-27-1-22v-84l2-44z" fill="#434243"/>
<path transform="translate(757,1081)" d="m0 0h5l-2 35v15l-1 37 1 51 2 31 3 30 4 26 4 19 4 17 8 23 4 9 8 15 5 6-1 4v-2l-4-2-3-3-4-7-6-10-3-7-4-10-4-11-2-10-3-9-3-14-3-19-3-24-2-21-2-33v-14l-1-28 1-44 1-26 1-19z" fill="#343334"/>
<path transform="translate(344,889)" d="m0 0h10v4l-28 20-14 11h-2l-1 3-13 10-4 1v2h-2l-1 2-8 5-4 4-8 7-8 8-1 2h-2l-1 3-5 5-4 5-9 11-5 4-7 6-2-1 9-12 8-10 11-13 11-12 23-23 8-7 13-11 19-14 11-8z" fill="#474546"/>
<path transform="translate(499,1068)" d="m0 0 4 1h-2l1 30v137l-1 60-2 61-3 53-3 42-5 50-6 45-5 31-3 17h-1l-1-10 8-47 6-46 5-52 4-63 2-51 1-37z" fill="#444344"/>
<path transform="translate(520,1075)" d="m0 0h5l-3 1v146l-1 9v25h-2l1 6v7 3 8h-2l1 3v12l-1 2-1 14-1 4v5l-1 1v12l-1 4v10l-1 5v7l-1 2-1 5-1 3-5-2v-38l1-39h1l1 42 1 7 1 1 1-2 2-23 2-49 2-69 2-27z" fill="#333233"/>
<path transform="translate(712,51)" d="m0 0h40l24 2 7 2 23 5 5 2-3 1-35-4-13-1h-56l-34 3-41 6-15 3h-7l-1-3 12-3 35-6 15-2h6v-2l21-2z" fill="#222"/>
<path transform="translate(736,1089)" d="m0 0 9 1v3 1l1 4v13l-1 3v5l1 4-1 4v30l-2 2h2v26h-1v7h1v20l1 11v21l1 3v12l-1 3h2v10l1 2v6l-1 2h2v8l1 1 1 11 1 8 1 4 2 13 2 7 2 10 2 4 1 7 4 10 2 6-1 4-7-19-5-17-5-23-5-33-3-32-2-40-1-45v-59l-2-5h-2l-1 3-1 13h-2l1-19 1-8z" fill="#323132"/>
<path transform="translate(608,781)" d="m0 0h9l5 2 2 7 1 13-1 13-2 7h-5l-9-4-9-5-2-2v-3l10-1 1-3-12-1-2-2 1-7 4-9z" fill="#484647"/>
<path transform="translate(665,55)" d="m0 0h9v1l-46 7-20 4 1 4-27 6-20 6-26 9-25 11-20 11-5 1-11 7-9 7-2-3 11-9 19-12 21-11 27-11 31-10 33-8 38-7z" fill="#939292"/>
<path transform="translate(625,786)" d="m0 0h6l8 5v5l3-1 4 5-1 5v9l5 3-1 6-8 1 5 1v6l-2 1h-17l-4-2 1-11 1-7z" fill="#444243"/>
<path transform="translate(530,1291)" d="m0 0 2 1 1 9v24l-1 21v14l-1 19-1 25-2 35-2 28-2 21-1 13-2 16-2 11-2-3 2-18-4 21-2-2 3-21 3-25 2-20 2-21 2-24 1-22 1-14 1-19v-10l1-6v-20l1-15z" fill="#343334"/>
<path transform="translate(614,772)" d="m0 0h5v2l-2 1 11 1v2l5 2 4 4-12 2 1 7v19l-3 15-3 8h-1l1-7 3-12 1-15-2-18-5-1h-9l-9 5-4 12 1 5h-12l-3-2 1-20 4-5 21-4z" fill="#333233"/>
<path transform="translate(970,1034)" d="m0 0h1v39l-3 53-4 43-5 39-6 35-8 36-8 27-9 25-11 24-11 18-9 11-7 6 2-4 8-9 9-14 3-8 8-16 8-19 10-31 5-19h2l1-8 7-35 6-39 5-47 3-40z" fill="#DBDBDB"/>
<path transform="translate(962,183)" d="m0 0 3 3 5 15 4 18 1 8 1 5 1 14 1 15-1 8h2v17l1 8v7l-2 9h-3l-2-19-1-4-2-30-2-16-1-18-1-8-1-11-2-10v-1l-1-3z" fill="#343334"/>
<path transform="translate(999,229)" d="m0 0 3 1 9 12 8 15 5 15 1 9-5-4-10-6v-2l-5-2-2-1v10h-1l-2-21-1-14z" fill="#484647"/>
<path transform="translate(703,911)" d="m0 0 3 1-9 9-11 9-9 6-9 4 15-5 1-3 7-4h2l1 3-10 7-15 7-14 4-12 2h-16l-17-3-16-6 3-1 17 4 10 1h9l-6-1v-1l18-1 16-4 16-7 12-8 12-11z" fill="#4A4849"/>
<path transform="translate(748,1346)" d="m0 0 2 3 5 17 10 25 8 15 9 12 6 7-1 4 2 3-4-2-3-4-1-2-7-6-9-13-9-16-4-9-3-7-3-9-3-8 1-4h2l2 3z" fill="#323132"/>
<path transform="translate(404,935)" d="m0 0h3l5 35v7l2-3 8 19 7 13 9 12 9 10 10 9v2l-6-2-8-7-8-8-11-15-5-6-8-18-6-21-4-26z" fill="#595758"/>
<path transform="translate(344,889)" d="m0 0h6l1 3-44 29-12 9-10 8-12 11-8 7-12 13-8 9v-3l10-11 7-8 25-25 8-7 13-11 19-14 11-8z" fill="#DBDBDB"/>
<path transform="translate(563,813)" d="m0 0 7 1 7 6 22 9 5 3-4 1-26-8-13-1v2l-2 1v4l5 2 12 5 11 6 7 2-3 1-10-3-12-5-17-5-3-3-1-4 3-7 5-3z" fill="#181818"/>
<path transform="translate(969,964)" d="m0 0h1l1 51 2 2v55h-2l-1-12-3 57-5 54-5 38-8 44-4 17h-1l1-9 7-35 6-40 5-46 3-42 2-46z" fill="#494748"/>
<path transform="translate(1e3 295)" d="m0 0 8 3 17 13v44h-1l-1-12-3-4-1-6 2-5v-4l-5-1 1-8-9-3v-2h-2v5h-3l1 15 2 1-2 1v3h-2l-1-21v-4z" fill="#333233"/>
<path transform="translate(368,850)" d="m0 0 6 1-6 10h-2l1 4 9 1 2 1-1 4-11-1-5 1-4 1 1 2h-3v2l9-1 3 1-2 4-8 5h-8l-6 1 2-3h2l1-4 4-15 4-6 9-7z" fill="#343334"/>
<path transform="translate(442,1745)" d="m0 0 3 1v2l-2 5-4 1-1 4-6 4-5 6-4 1-1 3-3 1-5 5-11 6h-5l-1 3-3 1-2-2 14-8 9-7-1-3-7 2-9 5-3-1 5-5 6-5h6l1-1-3-1 6-1 1-1 11-6 6-3 3-3h2v-2z" fill="#323132"/>
<path transform="translate(193,1770)" d="m0 0 5 5 14 15 12 11 11 9 15 11 18 10 18 7 18 4 8 1h33v1l-13 2h-24l-25-5-20-8-16-9-16-12-10-9-16-16-11-14z" fill="#DBDBDB"/>
<path transform="translate(495,1388)" d="m0 0h2l-1 22-3 42-5 50-6 45-5 31-3 17h-1l-1-10 8-47 6-46 5-52 3-44z" fill="#454344"/>
<path transform="translate(532,1102)" d="m0 0h2v59h-1v8h1v78l-1-2h-2v-142z" fill="#2E2D2E"/>
<path transform="translate(695,52)" d="m0 0h17v1l-25 2-8 1 6 1 1-1h12l6 1v1l-34 3-41 6-15 3h-7l-1-3 12-3 35-6 15-2h6v-2z" fill="#272627"/>
<path transform="translate(742,774)" d="m0 0 4 2 2 5 2 14v31l-3 20-6 21-6 14h-4-2l-2 7v6l-7 12-10 11-3-1 2-1v-2l2-1 3-5 5-7 4-13 5-9 4-1 3-2v-2h2v-6l2-4v-2l2-2 3-11 1-10 1-5 1-7v-12l1-7-1-4v-9l-2-15z" fill="#3B3A3B"/>
<path transform="translate(969,217)" d="m0 0h2l3 12 2 28 2 43v10h-3l-2-19-1-4-2-45-1-14z" fill="#474546"/>
<path transform="translate(659,913)" d="m0 0h2l-2 13-2 12h6l-2 2-16 4h-11l-2-2h6l6-4 1-7 1-10 4-4z" fill="#313031"/>
<path transform="translate(456,1041)" d="m0 0h6l13 8 15 8 24 9 25 7 23 5 16 3v1l-13-1-28-5-26-7-25-9-17-9-7-3-5-5z" fill="#484647"/>
<path transform="translate(487,113)" d="m0 0 3 2-14 9-11 9-10 9-8 8-13 17-3 5-3-1 2-9 11-14 13-14 8-7 4 1 9-7z" fill="#242424"/>
<path transform="translate(506,1290)" d="m0 0h1l1 42 1 7 1 1 1-2 3-33h2l1-2v8l-1 4v5l-1 1v12l-1 4v10l-1 5v7l-1 2-1 5-1 3-5-2v-38z" fill="#343334"/>
<path transform="translate(385,887)" d="m0 0 5 1 6 9 1 5-4 6-3 4-2 2-3-2-1 4-3-10-6-9v-3l6-4h2v-2z" fill="#484647"/>
<path transform="translate(326,930)" d="m0 0h3v2l-8 7-14 15-8 10-13 17-9 13-7 11-12 20-8 14-11 20-1-4 4-7 2-6 4-5 3-8 2-1 2-4 3-7 2-1 1-3h2l1-5h2l3-9 3-3 3-6 3-3 2-4 3-3 2-3h2l1-5 4-5h2l1-4 6-5v-2h2l2-5 2-1 5-5 8-9 5-5z" fill="#333233"/>
<path transform="translate(376,911)" d="m0 0 2 4v2l-9 5-4 2-1 5-2-1-2 3-4 4-3 1-2 2-4 2v2l-5 2-3 5-5 2-3 5-4 2-1 3-8 7-5 6-4 2-5 7-5 4-7 10-4 5-2 2h-2l2-4 11-14 14-15 7-8 18-18 11-9 8-7 18-14z" fill="#323132"/>
<path transform="translate(694,793)" d="m0 0 2 3 2 23-3 20-6 16-6 10-9 12-13 13-15 9-15 4h-8l1-2 15-3 16-8 5-4h2v-2l8-7 4-5 1-2h2l2-5 5-8 6-15 4-22z" fill="#434243"/>
<path transform="translate(941,1278)" d="m0 0 1 4v8l-12 36-11 25-11 19-10 13-7 7v-3l9-10 9-14 3-8 8-16 8-19 10-31z" fill="#aaa"/>
<path transform="translate(741,1352)" d="m0 0h2l5 15 3 8 8 18 9 15 9 12 4 3 2 1 2 5 14 11 7 5v2l5 2 1 4-6-2-14-8-5-5 5 2 2 1-16-15-8-10-11-17-9-19-8-22z" fill="#464445"/>
<path transform="translate(559,800)" d="m0 0 6 1 2 1 14 1v1l-23 2-1 2 4-1 1 3 3 1-1 2-7-1-6 2-9 1-10 4-7 1 2-3-2-1 5-4 18-7zm-25 12m-2 1m-2 1-1 2 3-1z" fill="#1C1C1C"/>
<path transform="translate(667,678)" d="m0 0 6 1 14 6 12 9 10 9 6 10 1 1v5l-4-1-8-10-9-9-14-10-4-2v-2h-2l-3-3z" fill="#393839"/>
<path transform="translate(136,1503)" d="m0 0h2l1 7-1 11h2l-1 10-1 2h2l1 4-2 1 1 4v7l-6 7-1-4 5-6v-2l-2 4h-2l-1 3-1-2-3-1v-15l1-4h2l1-4 2-5z" fill="#323132"/>
<path transform="translate(395,919)" d="m0 0h1l-1 7-3 6v1h6l2-5 4-3 11-1 4-1 2 1-4 8-5 3-13 2-8-1-7 1h-3l4-7 3-3-1-2h2l1-2z" fill="#353434"/>
<path transform="translate(168,1586)" d="m0 0h1l6 26 1 1-2-11v-5l2 3 3 15 3 12 2 9 2 5 4 17-4 1-4-10-2-9-2-6-3-10-5-20-2-10-1-7z" fill="#333233"/>
<path transform="translate(191,1767)" d="m0 0 6 3 6 8 8 7 1 3 4 2 10 10 2 1v2l4 2 3 2v2l5 2 7 6 15 9 17 8 17 5 18 3 24 1v1h-26l-18-3-16-5-16-7-15-9-13-10-14-12-8-7-10-10-8-10-3-2z" fill="#484748"/>
<path transform="translate(985,669)" d="m0 0 2 1 1 60 1 40-2 3h-2v-49h-1v-31l-1-18v-3l2-1z" fill="#333233"/>
<path transform="translate(915,167)" d="m0 0 6 9 5 8 2 3 2 4 2 1-1 5-2 1 4 1v-2l3 1 2 4-1 5-4-2h-3l-5-7-1-3-4-4v-2h-2v-2h-2l-1-11z" fill="#343233"/>
<path transform="translate(641,795)" d="m0 0 5 5-1 5v9l5 3-1 6-10 1-5-12 1-7 4-9z" fill="#484647"/>
<path transform="translate(133,1372)" d="m0 0 2 4v18l1 21v48l1 17 1 20-2 3-2-30-1-25-1-74z" fill="#343334"/>
<path transform="translate(748,1346)" d="m0 0 2 3 5 17 4 11v6l-3 2-5-7-3-10-5-12 1-4h2l2 3z" fill="#2D2C2D"/>
<path transform="translate(984,180)" d="m0 0h2l7 25-1-14 2 4v4h2l4 29-2 1-3-5h-2l-1-7-1-8-2 4-5-30z" fill="#343334"/>
<path transform="translate(969,964)" d="m0 0h1l1 51 2 2v55h-2l-1-20h-1z" fill="#464546"/>
<path transform="translate(404,935)" d="m0 0h3l5 35v13l-2-3-5-18-4-26z" fill="#6D6C6C"/>
<path transform="translate(499,1289)" d="m0 0 2 1-1 40-2 49-1 9h-2l1-34 2-64z" fill="#454344"/>
<path transform="translate(805,54)" d="m0 0h25l23 2 22 4-4 2-20-3-10-1h-39l-7-2v-1z" fill="#696869"/>
<path transform="translate(501,1610)" d="m0 0 1 4-1 7h-2l1 3h-2l1 3h-2l1 4-4 7-1 4-1 3h-2l-1 3h-2l-1 2 2 1-3 1-1-3 6-20 2-9 2-1v8h2l3-11z" fill="#333233"/>
<path transform="translate(413,864)" d="m0 0h4l9 13 5 12v9h-4l-4-13-5-10-6-9z" fill="#444243"/>
<path transform="translate(632,785)" d="m0 0 10 2 4 6-1 1 6 2 1 4h-2l2 4 2 6-5 5-1-11h-2v8l1 4-3-2v-9l1-5-4-4h-2v-5l-4-2-4-3z" fill="#2F2E2F"/>
<path transform="translate(484,1522)" d="m0 0 1 4-6 40-3 15-2 14h-1l-1-10 8-47 2-13z" fill="#444243"/>
<path transform="translate(712,51)" d="m0 0h40l24 2 6 2v2l-49-3v-1l-21-1z" fill="#828182"/>
<path transform="translate(697,908)" d="m0 0h5l-5 5-3 1-2 4-5 4h-2v2l-6 4-3-1 7-11 3-5z" fill="#181818"/>
<path transform="translate(728,878)" d="m0 0 7 1-1 3-5-1-2 7v6l-7 12-10 11-3-1 2-1v-2l2-1 3-5 5-7 4-13z" fill="#474546"/>
<path transform="translate(749,1300)" d="m0 0h2l2 7 1 9 1 4 1 7 2 7 2 10 2 4 1 7 4 10 2 6-1 4-7-19-5-17-5-23z" fill="#343334"/>
<path transform="translate(242,1814)" d="m0 0 12 7 10 6 18 8 14 4 18 3 24 1v1h-26l-18-3-16-5-16-7-15-9-5-4z" fill="#454344"/>
<path transform="translate(647,681)" d="m0 0h15l5 1v1l-58 3h-18l2-2z" fill="#484647"/>
<path transform="translate(559,800)" d="m0 0 6 1 2 1 14 1v1l-23 2-21 6-2 2h-3l-5 3-2-1 5-4 18-7z" fill="#343334"/>
<path transform="translate(634 1e3)" d="m0 0 7 1 3 4v2l-4-1v-2h-6l-2 4 1 11h6l3-4h2l-1 6-3 2h-6l-5-5-1-4v-7l3-5z" fill="#DBDBDB"/>
<path transform="translate(390,1787)" d="m0 0 2 1-6 4-10 3-11 3-8 1-2-1-1 2h-23l-7-1-7-2-1-2-3 1v-2l21 3h19l17-3 15-5z" fill="#343334"/>
<path transform="translate(572,808)" d="m0 0h7l1 9 5 4 10 5-3 1-15-6-7-6-6-1 4-4z" fill="#343334"/>
<path transform="translate(397,733)" d="m0 0h1l1 49 1 26 15-9 2 1-17 12-6 4 2-4 1-1z" fill="#DCDCDC"/>
<path transform="translate(392,1757)" d="m0 0 2 1-5 4v-3zm-5 4v3l-5 5-6 5-10 6-16 6-8 1 1-2 19-7 14-8z" fill="#F2F2F2"/>
<path transform="translate(672,875)" d="m0 0 3 1-14 14-15 9-15 4h-8l1-2 15-3 16-8 5-4h2v-2l8-7z" fill="#3F3D3E"/>
<path transform="translate(941,1278)" d="m0 0 1 4v8l-11 33h-2l1-9 8-25z" fill="#A9A9A9"/>
<path transform="translate(931,1325)" d="m0 0 1 2-11 25-11 19-6 8-2-2 10-15 9-17 7-17z" fill="#444344"/>
<path transform="translate(533,1203)" d="m0 0h1v44l-1-2h-2v-41z" fill="#2B2A2B"/>
<path transform="translate(693,884)" d="m0 0 5 3 8 6 5 3 1 3-3 1-7-3-8-5-6-1 3-5z" fill="#333233"/>
<path transform="translate(380,845)" d="m0 0 9 1 2 2-2 2h-8l-1 1 3 1-7 4-8 8-1-2 3-6 3-4-3-2 9-3z" fill="#1D1D1D"/>
<path transform="translate(695,52)" d="m0 0h17v1l-25 2-8 1 6 1 1-1h12l6 1v1l-30 2-6-3v-1h6v-2z" fill="#4D4C4C"/>
<path transform="translate(787,1350)" d="m0 0 3 4 3 8 5 10 2 6h2l1-2 2 4-1 4 1 3-1 2-3-3-3-5v-3l-2-1-6-11-3-11-1-3z" fill="#333233"/>
<path transform="translate(985,669)" d="m0 0 2 1v39l-1 7h-1l-1-6v-17l-1-18v-3l2-1z" fill="#323132"/>
<path transform="translate(495,1388)" d="m0 0h2l-1 22-3 42h-1l-1-5 1-21 2-30z" fill="#444243"/>
<path transform="translate(533,1151)" d="m0 0h1v10h-1v8h1v34l-3 1v-52z" fill="#2F2E2F"/>
<path transform="translate(364,852)" d="m0 0 1 4-4 6-1 7-6 3-3-1 2-9 5-5z" fill="#1E1D1E"/>
<path transform="translate(362,875)" d="m0 0 5 1-2 4-8 5h-8l-6 1 2-3h2v-2l10-5z" fill="#DCDCDC"/>
<path transform="translate(492,786)" d="m0 0h11l1 2-3 5-7 5-5 5-5 4-5 5-2-1 6-7 8-7 6-8h-11l4-2z" fill="#181818"/>
<path transform="translate(782,55)" d="m0 0 20 4 9 3-3 1-35-4-13-1v-1l15-1 7 1z" fill="#2E2D2D"/>
<path transform="translate(782,1368)" d="m0 0 4 3h2l8 16 6 8-1 4v-2l-4-2-3-3-4-7-6-10z" fill="#333233"/>
<path transform="translate(247,979)" d="m0 0 1 2-9 11-5 4-7 6-2-1 9-12 4-5 4-3z" fill="#5B5A5B"/>
<path transform="translate(395,919)" d="m0 0h1l-1 7-3 6v1l7 2v1h-8l-7 1h-3l4-7 3-3-1-2h2l1-2z" fill="#474647"/>
<path transform="translate(1e3 292)" d="m0 0 6 1 11 8v2l6 2v6l-9-6-9-7-6-2z" fill="#181818"/>
<path transform="translate(456,1041)" d="m0 0h6l13 8 7 4-1 4-12-6-7-3-5-5z" fill="#514F50"/>
<path transform="translate(621,757)" d="m0 0 4 2-2 4-7 3 3 2 10 5-3 1-8-3-12-2-2-1 1-3 9-3 9-1z" fill="#343334"/>
<path transform="translate(999,229)" d="m0 0 3 1 9 12 2 3v3l-6-2-6-4z" fill="#DBDBDB"/>
<path transform="translate(319,963)" d="m0 0 2 2-5 6-4 3-5 4-3 5-5 4-7 10-4 5-2 2h-2l2-4 11-14 15-16z" fill="#333233"/>
<path transform="translate(958,125)" d="m0 0 6 2 2 3v2h2l9 20 3 9-1 2-8-16-6-11v-3h-2z" fill="#333233"/>
<path transform="translate(955,1356)" d="m0 0 1 2-2 6 5-4-3 9-5 7-1 3-4 1 1-7 1-3h2l1-5z" fill="#343334"/>
<path transform="translate(446,148)" d="m0 0 1 2-13 17-3 5-3-1 2-9 5-5h2z" fill="#333"/>
<path transform="translate(394,879)" d="m0 0 5 3 6 9 1 7-3 2-4-8-2-1-2-5-1-1z" fill="#403F40"/>
<path transform="translate(297,1783)" d="m0 0 10 2 12 2h11l12-1 4 2-9 2h-17l-15-3-8-3z" fill="#DCDCDC"/>
<path transform="translate(534,90)" d="m0 0 3 1-8 4-20 9-18 10-3-1 13-8 21-10z" fill="#272626"/>
<path transform="translate(462,127)" d="m0 0 2 1-14 15-10 11-5 3 2-4 12-14z" fill="#959495"/>
<path transform="translate(830,55)" d="m0 0h15l25 4 5 1-4 2-20-3-21-2z" fill="#7A797A"/>
<path transform="translate(351,866)" d="m0 0h1v5l6-2 4-2h11v2l-12 2-4 1 1 2h-3v2l2 1-8 4-2-1 2-3z" fill="#737273"/>
<path transform="translate(742,774)" d="m0 0 4 2 2 5 2 14v31h-1l-1-19-1-4v-9l-2-15z" fill="#3F3E3F"/>
<path transform="translate(422 1e3)" d="m0 0 4 4 8 11 9 10 8 7 4 2 2 4 4 4-5-2-13-12-10-10-11-16z" fill="#D7D7D7"/>
<path transform="translate(623,783)" d="m0 0 2 3 1 7v19l-3 15-3 8h-1l1-7 3-12 1-15-2-17z" fill="#181818"/>
<path transform="translate(646,804)" d="m0 0h2l2 8-1 3 5-1 1-3 1 3v7h-1v-6l-1 2v6l-6 1 2-7h-3l-2-5z" fill="#343334"/>
<path transform="translate(581,890)" d="m0 0 4 1 10 5v2l4 1h3l7 2 4 2 9 1v1h-11l-16-5-13-8z" fill="#403E3F"/>
<path transform="translate(748,1346)" d="m0 0 2 3 2 7v9l-3-1-1-2h-3l-2-6 1-4h2l2 3z" fill="#313031"/>
<path transform="translate(971,1072)" d="m0 0 2 1-1 25-1 12-2 1v-16l1-22z" fill="#454344"/>
<path transform="translate(985,1036)" d="m0 0h1v10l-4 34-2 1 1-20 2-13z" fill="#343334"/>
<path transform="translate(497,1346)" d="m0 0h1l1 11-1 22-1 9h-2l1-34z" fill="#464445"/>
<path transform="translate(694,793)" d="m0 0 2 3 2 23-2 12-3-1 1-10z" fill="#414041"/>
<path transform="translate(282,1775)" d="m0 0 5 2 4 2 1 3 8 5 5 4-6-1-6-3v-2l-5-2-3-1v-3l-4-1z" fill="#4C4B4C"/>
<path transform="translate(390,829)" d="m0 0v3l-11 12v2l-10 1 5-5 11-9z" fill="#464445"/>
<path transform="translate(463,130)" d="m0 0m-1 1m-1 1 1 3-14 14h-3l2-4 11-11zm-17 17m-1 1m-1 1m-1 1m-1 1m-2 1 2 1-5 4 2-4z" fill="#232323"/>
<path transform="translate(628,62)" d="m0 0 4 1-2 2-10 2-1 2-5 1h-7l-1-3 12-3z" fill="#353435"/>
<path transform="translate(478,1562)" d="m0 0 1 4-3 15-2 14h-1l-1-10 4-21z" fill="#434142"/>
<path transform="translate(949,1253)" d="m0 0 1 4-7 29h-2l2-16h2l1-8z" fill="#CBCBCB"/>
<path transform="translate(650,61)" d="m0 0h8l-3 2-31 5h-8l4-2 10-2 2-2h5l1 1z" fill="#252525"/>
<path transform="translate(962,1316)" d="m0 0 2 2-2 7h-2l1 3-3 7-4 11-5 12h-2l1-5 5-11z" fill="#343334"/>
<path transform="translate(699,695)" d="m0 0 6 4 6 7 4 7 1 1v5l-5-5-5-8-3-5-4-4z" fill="#474546"/>
<path transform="translate(134,1595)" d="m0 0h4l1 6-1 4-7-1-3-6 4-2 2 1z" fill="#343334"/>
<path transform="translate(609,683)" d="m0 0h17l3 2-20 1h-18l2-2z" fill="#464445"/>
<path transform="translate(462,1646)" d="m0 0 2 3-2 8v18l-2 6h-1v-20z" fill="#343334"/>
<path transform="translate(914,1356)" d="m0 0 1 2-9 15-9 11-7 6 2-4 8-9 13-20z" fill="#DBDBDB"/>
<path transform="translate(418,923)" d="m0 0 3 1-2 4-3 2v-2l-3 1h-10l-4 2 3-5 4-1z" fill="#353435"/>
<path transform="translate(429,164)" d="m0 0 1 2-1 5 1 3-5 9-2-3-3 1 2-5z" fill="#515051"/>
<path transform="translate(675,684)" d="m0 0h5l11 9 10 8 1 3-4-2-11-9-10-6v-2z" fill="#525051"/>
<path transform="translate(940,206)" d="m0 0 4 5 2 4v5l-4-1-8-8v-2l6 2z" fill="#343334"/>
<path transform="translate(477,791)" d="m0 0 12 1v5l-7 7-3 5-3 1 2-4 6-10-2-2-5-2z" fill="#181818"/>
<path transform="translate(1e3 280)" d="m0 0 7 3 8 7 8 5-1 4-14-11-8-6z" fill="#181818"/>
<path transform="translate(491,1447)" d="m0 0h1v16l-2 17-2 3v-10l2-21z" fill="#464445"/>
<path transform="translate(396,899)" d="m0 0 1 3-4 6-3 4-2 2-3-2-1 4-1-6h2v-2l9-7z" fill="#302F30"/>
<path transform="translate(700,909)" d="m0 0h2l-2 4-12 11-9 6-3-1 7-5h2v-2l8-6 5-5z" fill="#3C3B3C"/>
<path transform="translate(607,876)" d="m0 0h12l2 1 1 4-8 3-4-1 3-1-1-3-8-1z" fill="#343334"/>
<path transform="translate(697,695)" d="m0 0h2l7 8 4 8 3 4-1 3-8-10-3-4-2-4-3-2z" fill="#343334"/>
<path transform="translate(482,114)" d="m0 0m-4 1h4l-2 4-15 10-1-3 11-9z" fill="#807F7F"/>
<path transform="translate(703,911)" d="m0 0 3 1-9 9-11 9-4 2 1-4 11-8z" fill="#3E3D3E"/>
<path transform="translate(926,197)" d="m0 0 4 2 3-1h3l2 4-1 5-4-2h-3l-4-5z" fill="#313031"/>
<path transform="translate(511,98)" d="m0 0m-2 1h2v2l-19 10-8 5-2-1 8-6z" fill="#454344"/>
<path transform="translate(741,1352)" d="m0 0h2l5 15 3 8 3 6-1 4-5-10-7-21z" fill="#474546"/>
<path transform="translate(139,1603)" d="m0 0h1l1 10-3 3-4-2-3-5-1-5 2 1v2h2l1 2h3z" fill="#343334"/>
<path transform="translate(931,1325)" d="m0 0 1 2-11 25h-3l10-24z" fill="#434142"/>
<path transform="translate(434,1016)" d="m0 0 4 2 9 10 10 9v2l-4-1-6-7-8-7-5-6z" fill="#313031"/>
<path transform="translate(687,853)" d="m0 0h2l-2 6-11 16-3-1 2-4h2l2-5 5-8 1-3z" fill="#424041"/>
<path transform="translate(475,792)" d="m0 0 9 2 1 2-7 11h-3l4-7v-5l-7-1z" fill="#343334"/>
<path transform="translate(756,52)" d="m0 0h10l10 1 6 2v2l-16-1-4-2-6-1z" fill="#787677"/>
<path transform="translate(454,1734)" d="m0 0 1 4-1 3-3-1 1 3-5 4-2-6 2-4z" fill="#323132"/>
<path transform="translate(403,928)" d="m0 0h13l1 4-9 2-1-2-5-2z" fill="#191919"/>
<path transform="translate(720,897)" d="m0 0h1l-1 9-10 11-3-1 2-1v-2l2-1 3-5 5-7z" fill="#393839"/>
<path transform="translate(366,900)" d="m0 0 4 1-18 12-9 7h-2v-2h2v-2l3-1 1-2 3-1 3-3 11-7z" fill="#343334"/>
<path transform="translate(370,937)" d="m0 0 3 1-2 4 6-1-2 2-11 3-5 4h-2v-2l4-4 3-1 3-3h2z" fill="#494748"/>
<path transform="translate(558,866)" d="m0 0 9 1 3 3 3 5-6-1-9-7z" fill="#DBDBDB"/>
<path transform="translate(364,874)" d="m0 0 7 2-1 4-9 6h-4v-2l9-6 1-2h-3z" fill="#434142"/>
<path transform="translate(484,1677)" d="m0 0 2 4-6 16-1-3 1-3h-2l2-6z" fill="#343334"/>
<path transform="translate(965,1165)" d="m0 0h1l-1 14-2 14h-2l1-15 1-8z" fill="#434142"/>
<path transform="translate(481,1054)" d="m0 0 5 1 10 5v2l-8-1-7-4z" fill="#2B2A2A"/>
<path transform="translate(939,1302)" d="m0 0 1 2-7 20-3 2 1-6 6-16z" fill="#444243"/>
<path transform="translate(986,709)" d="m0 0h1l1 9v11l-2 1-1-6h-1v-14z" fill="#343334"/>
<path transform="translate(404,1765)" d="m0 0 3 3-1 3-8 4-3-1 5-5z" fill="#343334"/>
<path transform="translate(380,845)" d="m0 0 9 1 2 2-2 2h-8l-6-1 4-2z" fill="#454344"/>
<path transform="translate(667,678)" d="m0 0 6 1 14 6v3l-7-3-6-2-7-4z" fill="#363536"/>
<path transform="translate(495,1388)" d="m0 0h2l-1 22-2 1v-15z" fill="#434142"/>
<path transform="translate(398,822)" d="m0 0 2 1-7 7-8 10-2-1 7-8 3-5zm-16 18m-1 1m-1 1m-1 1m-3 1 3 1z" fill="#212121"/>
<path transform="translate(531,89)" d="m0 0m-3 1h3v2l-18 8-2-1 8-5z" fill="#474546"/>
<path transform="translate(735,1329)" d="m0 0h2l5 19 1 4-3-1-5-20z" fill="#454344"/>
<path transform="translate(533,1151)" d="m0 0h1v10h-1l-1 21h-1v-30z" fill="#343334"/>
<path transform="translate(228,1074)" d="m0 0 2 1-3 9-7 15h-1l1-7 4-9h2z" fill="#343334"/>
<path transform="translate(248,1039)" d="m0 0v3l-9 17-1-4 4-7 2-6 2-2z" fill="#333233"/>
<path transform="translate(564,872)" d="m0 0 5 2 3 5 10 10-2 2-5-6-6-5z" fill="#454344"/>
<path transform="translate(739,861)" d="m0 0h2v6l-5 12-4 1 1-4 2-1v-2h2v-6l2-4z" fill="#3A393A"/>
<path transform="translate(491,846)" d="m0 0v3l-6 6-9-2v-2l5-2 3 1v2z" fill="#181818"/>
<path transform="translate(113,1441)" d="m0 0 2 2-3 12-2-2-1-8z" fill="#262526"/>
<path transform="translate(532,1269)" d="m0 0 2 2-2 20-2-1 1-20z" fill="#343334"/>
<path transform="translate(961,1193)" d="m0 0h1v9l-2 10-2 2 1-13 1-7z" fill="#454445"/>
<path transform="translate(432,920)" d="m0 0 2 1-4 5-9 5-4-1 5-3 3-4 2 1z" fill="#414041"/>
<path transform="translate(748,1361)" d="m0 0 2 3h3l1 8-5-2-3-6v-2z" fill="#181818"/>
<path transform="translate(357,1780)" d="m0 0 3 1-1 2-13 4-4-1 10-4z" fill="#F2F2F2"/>
<path transform="translate(854,57)" d="m0 0 11 1 10 2-4 2-17-3z" fill="#8A898A"/>
<path transform="translate(515,1292)" d="m0 0 2 1 1 10h-2v2h-2v-9z" fill="#2F2E2F"/>
<path transform="translate(646,804)" d="m0 0h2l2 8v4l-4-2-1-7z" fill="#464445"/>
<path transform="translate(941,1278)" d="m0 0 1 4v8l-1 3-4 3 1-7z" fill="#858485"/>
<path transform="translate(918,78)" d="m0 0 5 2 10 7h-3l-7-3-5-5z" fill="#A09FA0"/>
<path transform="translate(138,1541)" d="m0 0 2 1v7l-6 7-1-4 5-6v-2l-2-1z" fill="#343334"/>
<path transform="translate(602,899)" d="m0 0 7 2 4 2 9 1v1h-11l-10-4z" fill="#353435"/>
<path transform="translate(463,894)" d="m0 0h2l-2 4-11 9v-3l5-5h2v-2l4-1z" fill="#343334"/>
<path transform="translate(415,799)" d="m0 0 2 1-17 12-1-2 3-3z" fill="#FBFBFB"/>
<path transform="translate(966,1150)" d="m0 0h1v11l-2 8h-1v-9l1-9z" fill="#464445"/>
<path transform="translate(679,933)" d="m0 0 4 2-13 6-4-1 12-6z" fill="#302F30"/>
<path transform="translate(639,898)" d="m0 0h2v2l-10 3h-8l1-2z" fill="#343334"/>
<path transform="translate(807,1436)" d="m0 0 16 4-2 2-9-1-5-3z" fill="#333233"/>
<path transform="translate(898,1383)" d="m0 0 1 2-5 5-3 4h-2v2l-4 2 2-4z" fill="#454344"/>
<path transform="translate(385,887)" d="m0 0 5 1-4 2-11 7v-3l6-4h2v-2z" fill="#343334"/>
<path transform="translate(367,865)" d="m0 0 9 1 2 1-1 4-6-1 2-1v-2h-11v-1z" fill="#454344"/>
<path transform="translate(132,1603)" d="m0 0 7 1v6l-5-1v-2h-2l-1-3z" fill="#181818"/>
<path transform="translate(789,1426)" d="m0 0 5 2 9 5-2 2-12-6z" fill="#333233"/>
<path transform="translate(376,850)" d="m0 0 7 1-4 3-9 6 2-4 3-1z" fill="#343334"/>
<path transform="translate(697,695)" d="m0 0h2l7 8 1 4h-2l-7-8-2-1z" fill="#2D2C2D"/>
<path transform="translate(658,59)" d="m0 0h8l4 2-12 1-8-1v-1z" fill="#323132"/>
<path transform="translate(911,1386)" d="m0 0v3l-8 11-2 1 1-4z" fill="#343334"/>
<path transform="translate(733,1311)" d="m0 0h1l3 18h-2l-3-13z" fill="#434142"/>
<path transform="translate(395,919)" d="m0 0h1l-1 7-6 1-2-2h2l1-2z" fill="#323132"/>
<path transform="translate(429,164)" d="m0 0 1 2-1 5 1 3-2 2-4-2 2-5z" fill="#787777"/>
<path transform="translate(951,118)" d="m0 0h2l5 6-2 1-2 3-4-9z" fill="#343334"/>
<path transform="translate(603,67)" d="m0 0 5 1 1 3h-9l-3-2z" fill="#3E3D3E"/>
<path transform="translate(640,60)" d="m0 0 10 1v1l-15 2-1-3z" fill="#363535"/>
<path transform="translate(771,56)" d="m0 0 9 1v2l-20-1v-1z" fill="#313031"/>
<path transform="translate(532,1102)" d="m0 0h2v11l-3 1v-11z" fill="#302F30"/>
<path transform="translate(637,844)" d="m0 0h7l-1 4-3 1-6-2v-2z" fill="#302F30"/>
<path transform="translate(469,125)" d="m0 0m-1 1m-4 1 3 1-1 4-4 2h-3l2-4z" fill="#333232"/>
<path transform="translate(928,1320)" d="m0 0 2 3-1 5-3 3-3 4 1-5z" fill="#7B7A7A"/>
<path transform="translate(700,909)" d="m0 0h2l-2 4-6 6h-2l2-5z" fill="#3B393A"/>
<path transform="translate(443,146)" d="m0 0 2 3-9 8v-3z" fill="#9F9E9F"/>
<path transform="translate(369,1774)" d="m0 0 2 1-5 5-7 2 1-3z" fill="#F6F6F6"/>
<path transform="translate(501,1610)" d="m0 0 1 4-1 7h-2l1 3-3 1 2-9z" fill="#343334"/>
<path transform="translate(505,1370)" d="m0 0h2v2l3-1 1 7-5-1z" fill="#343334"/>
<path transform="translate(748,1290)" d="m0 0 3 1 1 9h-3l-1-3z" fill="#333233"/>
<path transform="translate(237,1059)" d="m0 0 1 3-6 11-2-1 2-6 1-2h2l1-4z" fill="#343334"/>
<path transform="translate(411,810)" d="m0 0 2 1-8 7-3 4-3-1 7-7z" fill="#444243"/>
<path transform="translate(505,1377)" d="m0 0 3 3 2-1-1 7-3-1-1-2z" fill="#343334"/>
<path transform="translate(476,853)" d="m0 0h6l1 2-5 3-4 1z" fill="#313131"/>
<path transform="translate(958,125)" d="m0 0 6 2 2 3 1 3-2 1-4-4z" fill="#292929"/>
</svg>
